<?xml version="1.0" encoding="utf-8"?>
<!-- Generator: Adobe Illustrator 22.0.1, SVG Export Plug-In . SVG Version: 6.00 Build 0)  -->
<svg version="1.1" id="Layer_1" xmlns="http://www.w3.org/2000/svg" xmlns:xlink="http://www.w3.org/1999/xlink" x="0px" y="0px"
	 viewBox="0 0 247.8 272" style="enable-background:new 0 0 247.8 272;" xml:space="preserve">
<style type="text/css">
	.st0{fill:#221E1F;}
</style>
<g>
	<g>
		<path class="st0" d="M230.9,24.2h-3.4v-2.9v-0.7c0-11.4-9.2-20.6-20.6-20.6c-11.4,0-20.6,9.2-20.6,20.6v0.7v2.9h-13.6v-2.9h0v-0.7
			c0-8.5-5.2-15.8-12.5-18.9c0,0-0.1,0-0.1-0.1c-1.2-0.5-2.5-0.9-3.8-1.2c0,0,0,0,0,0c-0.6-0.1-1.2-0.2-1.8-0.3c-0.1,0-0.2,0-0.3,0
			C153.5,0,152.8,0,152.1,0l0,0l0,0c-11.4,0-20.6,9.2-20.6,20.6v0.7l0,0v2.9h-13.6v-3.6C117.9,9.2,108.7,0,97.3,0
			C85.9,0,76.7,9.2,76.7,20.6v3.6H63.1v-3.6C63.1,9.2,53.8,0,42.5,0S21.8,9.2,21.8,20.6v3.6h-4.9C7.6,24.2,0,31.8,0,41.1v159v5.7
			v13.3c0,0,0,0,0,0v3.7c0,0,0,0,0,0v13.4c0,0,0,0,0,0v18.8c0,9.3,7.6,16.9,16.9,16.9h214c9.3,0,16.9-7.6,16.9-16.9V91.8h0V62V49.8
			v-8.7C247.8,31.8,240.2,24.2,230.9,24.2z M196.2,20.6c0-5.9,4.8-10.7,10.7-10.7s10.7,4.8,10.7,10.7v0.7v16
			c0,5.9-4.8,10.7-10.7,10.7s-10.7-4.8-10.7-10.7v-16V20.6z M141.4,21.3v-0.7c0-5.8,4.6-10.5,10.3-10.7c0.1,0,0.2,0,0.4,0
			c5.9,0,10.7,4.8,10.7,10.7v0.7l0,0v16c0,5.9-4.8,10.7-10.7,10.7c-5.9,0-10.7-4.8-10.7-10.7L141.4,21.3L141.4,21.3z M86.6,20.6
			c0-5.9,4.8-10.7,10.7-10.7S108,14.7,108,20.6v16.6c0,5.9-4.8,10.7-10.7,10.7s-10.7-4.8-10.7-10.7V20.6z M42.5,9.9
			c5.9,0,10.7,4.8,10.7,10.7v16.6c0,5.9-4.8,10.7-10.7,10.7c-4.8,0-8.8-3.1-10.2-7.5c0,0,0-0.1,0-0.1c-0.1-0.3-0.1-0.5-0.2-0.8
			c0-0.1-0.1-0.3-0.1-0.4c0-0.2-0.1-0.5-0.1-0.7c0-0.3,0-0.6-0.1-0.9c0-0.1,0-0.2,0-0.4v-0.7h0V20.6C31.7,14.7,36.6,9.9,42.5,9.9z
			 M237.9,255.1c0,3.9-3.1,7-7,7h-214c-3.9,0-7-3.1-7-7v-12.9v-5.9v-13.4v-3.7v-13.3c0,0,0,0,0,0V41.1c0-3.9,3.1-7,7-7h4.9v3.2
			c0,0.7,0,1.3,0.1,1.9c0,0.1,0,0.1,0,0.2c0.3,2.8,1.2,5.5,2.5,8c0.1,0.2,0.3,0.4,0.4,0.6c3.5,5.6,9.6,9.5,16.6,9.8
			c0.3,0.1,0.6,0.1,0.9,0.1c11.4,0,20.6-9.2,20.6-20.6v0c0,0,0,0,0,0v-0.7h0v-2.5h13.6v3.2c0,11.4,9.2,20.6,20.6,20.6
			c11.4,0,20.6-9.2,20.6-20.6v-3.2h13.6v3.2c0,11.4,9.2,20.6,20.6,20.6c11.4,0,20.6-9.2,20.6-20.6v-3.2h13.6v3.2
			c0,11.4,9.2,20.6,20.6,20.6c11.4,0,20.6-9.2,20.6-20.6v-3.2h3.4c3.9,0,7,3.1,7,7V62c0,0,0,0,0,0v13.7c0,0,0,0,0,0V255.1z"/>
		<path class="st0" d="M205.6,77H72.8c0,0,0,0,0,0h-16h-5.2h-9.3c-8.4,0-15.3,6.9-15.3,15.3v118.2c0,8.4,6.9,15.3,15.3,15.3h87.9h8
			h12.7h13.9h40.8c8.4,0,15.3-6.9,15.3-15.3V92.3C220.9,83.9,214,77,205.6,77z M211,210.5c0,3-2.4,5.4-5.4,5.4h-40.8h-13.9h-12.7h-8
			H42.3c-3,0-5.4-2.4-5.4-5.4V92.3c0-1.4,0.6-2.8,1.6-3.8c1-1,2.4-1.6,3.8-1.6h14.5c0,0,0,0,0,0h16h9.1h123.7c3,0,5.4,2.4,5.4,5.4
			V210.5z"/>
	</g>
	<g>
		<path class="st0" d="M90.8,137.9h-12c-1.7,0-2.9-0.4-3.7-1.2c-0.8-0.8-1.2-2-1.2-3.7c0-1.2,0.3-2.2,0.8-3s1.2-1.3,2.1-1.6
			c0.3-0.1,1.6-0.2,3.8-0.5c2.2-0.3,4.2-0.7,5.9-1.2c1.8-0.6,3.7-2.3,5.5-5.2c0.2-0.3,0.3-0.6,0.4-0.7c0.1-0.2,0.3-0.4,0.5-0.9
			c1.5-2.5,3.4-3.7,5.6-3.7c1.9,0,3.3,0.5,4.3,1.5s1.5,2.5,1.5,4.4v56.4c0,2.4-0.6,4.1-1.7,5.3c-1.1,1.2-2.8,1.8-5,1.8
			c-2.2,0-3.9-0.6-5-1.8c-1.1-1.2-1.7-3-1.7-5.3V137.9z"/>
		<path class="st0" d="M140.8,118.1h24.1c2,0,3.6,0.5,4.6,1.5c1,1,1.6,2.4,1.6,4.3c0,1.9-0.5,3.4-1.6,4.3c-1,1-2.6,1.5-4.6,1.5
			h-23.7l-1.8,13.7c1.5-1.2,3.2-2.1,5.2-2.7c1.9-0.6,4.1-0.9,6.5-0.9c6.8,0,12.3,2.1,16.5,6.2c4.2,4.1,6.3,9.6,6.3,16.3
			c0,7.4-2.3,13.2-6.9,17.6s-10.8,6.6-18.6,6.6c-6,0-11.2-1.4-15.4-4.2c-4.2-2.8-6.3-6.1-6.3-9.8c0-1.9,0.6-3.6,1.8-4.8
			c1.2-1.3,2.7-1.9,4.5-1.9c1.2,0,2.3,0.3,3.2,0.9s2,1.8,3.2,3.7c1.3,2,2.6,3.4,3.9,4.1c1.3,0.7,3,1.1,5.2,1.1
			c3.7,0,6.5-1.1,8.5-3.3s2.9-5.3,2.9-9.3c0-3.8-1-6.8-3-9c-2-2.2-4.8-3.3-8.3-3.3c-2.4,0-5.1,0.8-8.2,2.4c-3.1,1.6-5.2,2.4-6.4,2.4
			c-1.9,0-3.4-0.6-4.4-1.7s-1.5-2.9-1.5-5.2c0-0.6,0-1,0-1.4c0-0.4,0-0.7,0.1-1l2.5-20.1c0.4-3.4,1.3-5.6,2.5-6.6
			C134.4,118.6,136.9,118.1,140.8,118.1z"/>
	</g>
</g>
</svg>
