<?xml version="1.0" encoding="utf-8"?>
<!-- Generator: Adobe Illustrator 22.0.1, SVG Export Plug-In . SVG Version: 6.00 Build 0)  -->
<svg version="1.1" id="Layer_1" xmlns="http://www.w3.org/2000/svg" xmlns:xlink="http://www.w3.org/1999/xlink" x="0px" y="0px"
	 viewBox="0 0 45 50" style="enable-background:new 0 0 45 50;" xml:space="preserve">
<style type="text/css">
	.st0{fill:#231F20;}
</style>
<g>
	<path class="st0" d="M43,25.8c-0.5-0.5-1.2-0.8-2-0.8c-0.8,0-1.6,0.3-2.1,0.9L22.8,43L6.1,25.9C5.5,25.3,4.8,25,4,25
		c-0.8,0-1.5,0.3-2,0.8c-0.6,0.5-0.9,1.3-0.9,2.1c0,0.8,0.3,1.5,0.8,2l18.8,19.2c0.5,0.5,1.3,0.9,2.1,0.9c0.8,0,1.6-0.3,2.1-0.9
		l18.2-19.2C44.2,28.7,44.1,26.9,43,25.8z"/>
	<path class="st0" d="M43,0.8C42.4,0.3,41.7,0,41,0c-0.8,0-1.6,0.3-2.1,0.9L22.8,18L6.1,0.9C5.5,0.3,4.8,0,4,0C3.2,0,2.5,0.3,2,0.8
		C1.4,1.4,1.1,2.1,1.1,2.9c0,0.8,0.3,1.5,0.8,2l18.8,19.2c0.5,0.5,1.3,0.9,2.1,0.9c0.8,0,1.6-0.3,2.1-0.9L43.1,4.9
		C44.2,3.7,44.1,1.9,43,0.8z"/>
</g>
</svg>
