<?xml version="1.0" encoding="utf-8"?>
<!-- Generator: Adobe Illustrator 22.0.1, SVG Export Plug-In . SVG Version: 6.00 Build 0)  -->
<svg version="1.1" id="Layer_1" xmlns="http://www.w3.org/2000/svg" xmlns:xlink="http://www.w3.org/1999/xlink" x="0px" y="0px"
	 viewBox="0 0 752.7 548.8" style="enable-background:new 0 0 752.7 548.8;" xml:space="preserve">
<style type="text/css">
	.st0{fill:#FFFFFF;}
	.st1{fill:#242424;}
</style>
<g>
	<g>
		<path class="st0" d="M537,371.6c30.5,14.1,53.7,43.9,57,63.9h76.9c-1.2-24.7-11.7-51.1-30.1-75.3c-18.8-24.7-44.2-45.3-71.5-58
			c-0.1-0.6-0.3-1.9-0.1-4c1.1-10.8,10.4-24.4,22.6-27.4c1.7-0.4,3.5-0.6,5.3-0.6c19.1,0,44.5,21.8,68.1,58.2
			c7.1,11,19.1,17.5,32.2,17.5c7.4,0,14.5-2.1,20.7-6.1c17.7-11.5,22.9-35.2,11.4-52.9c-49.7-77.1-99.5-93.2-132.4-93.2
			c-7.9,0-15.7,0.9-23.3,2.7c-48.1,11.6-77,56.2-80.8,94.3C489.5,326.3,506.3,357.4,537,371.6z"/>
		<path class="st0" d="M506,435.5c-13.5-14.4-21.2-29.4-21.6-30c-6.5-13.1-19.7-21.3-34.3-21.3c-5.8,0-11.6,1.3-16.8,3.9
			c-9.2,4.5-16.1,12.3-19.4,22c-2.9,8.4-2.8,17.3,0.2,25.4H506z"/>
	</g>
	<g>
		<path class="st1" d="M433.1,435.5c-1.2-2.2-1.8-3.5-2-3.7c-5.1-10.5-0.8-23.2,9.7-28.3c3-1.5,6.2-2.2,9.3-2.2
			c7.8,0,15.3,4.3,19,11.8c0.2,0.3,5.2,10.3,14.5,22.4h48.1c-2.5-1.8-5-3.9-7.6-6.2c-14.8-13.6-23.8-30.5-24.4-31.6
			c-4.7-9.3-11.8-17.1-20.7-22.6c-8.7-5.3-18.7-8.1-28.9-8.1c-8.4,0-16.8,2-24.4,5.7c-13.3,6.5-23.3,17.8-28.1,31.8
			c-3.5,10.1-3.9,20.8-1.4,31H433.1z"/>
		<path class="st1" d="M743.9,277.5C690,194,634.3,176.4,597.1,176.4c-9.3,0-18.4,1.1-27.3,3.2c-26.2,6.4-49.3,21.4-66.7,43.4
			c-15.2,19.3-24.9,42.7-27.1,65.9c-4.3,43.2,16.4,80.8,53.9,98.2c13.1,6.1,26.1,16.6,35.6,28.9c6.5,8.3,9.6,15.1,10.9,19.4h34.9
			c-3.1-27.8-32.5-63.4-67-79.4c-24.2-11.2-37-35.1-34.2-63.8c3.2-32,27.5-69.6,67.8-79.3c5.4-1.3,11.9-2.3,19.2-2.3
			c29.4,0,72.8,15.4,118,85.4c6.3,9.8,3.5,22.9-6.3,29.2c-3.5,2.3-7.5,3.4-11.4,3.4c-6.9,0-13.7-3.4-17.8-9.7
			c-27.5-42.6-57-66.1-82.5-66.1c-3.2,0-6.3,0.4-9.3,1.1c-20.2,4.9-33.9,25.4-35.6,42.4c-1,10.6,2.3,17.7,9.9,21.2
			c24.9,11.5,48,30.3,65.1,52.8c16.1,21.2,25.3,43.9,26.6,65H688c-1.2-28.5-12.9-58.5-33.6-85.7c-17.5-23-40.3-42.8-65.3-56.7
			c1.9-2.7,4.4-5.1,6.6-5.6c0.4-0.1,0.8-0.1,1.2-0.1c7.3,0,27.9,10.5,53.7,50.4c10.3,15.9,27.7,25.4,46.6,25.4
			c10.7,0,21.1-3.1,30-8.9C753.1,337.6,760.5,303.2,743.9,277.5z"/>
	</g>
	<polygon class="st0" points="216.2,400.1 205.5,396 98.4,347.9 69.5,287.5 86.6,211.8 88.9,111.7 111.8,24.4 194.3,94 265.2,109.1 
		389,114.4 479.3,25.7 502.3,39.6 521.3,136.1 535.3,274.1 533.3,330.3 403.5,410.2 352.7,419.4 	"/>
	<path class="st1" d="M271.1,333.2c0,0,8.5,26.3,31.3,28.8c22.7,2.5,33.3-28.9,33.3-28.9l-33.3-22.5L271.1,333.2z"/>
	<path class="st0" d="M318.1,339.5c0,5.6-6.5,10.1-14.6,10.1c-8.1,0-14.6-4.5-14.6-10.1c0-5.6,6.5-10.1,14.6-10.1
		C311.6,329.4,318.1,333.9,318.1,339.5z"/>
	<path class="st0" d="M412.4,435.5l-25.8-99.8c-1.2-31.2-25.4-56.3-55-56.3H270c-29.6,0-53.8,25-55,56.2l-26.3,99.8H412.4z"/>
	<g>
		<g>
			<path class="st1" d="M538.8,215.4c16-133.6-28.4-204.1-30.3-207.1c-4.8-7.5-14.2-10.4-22.4-6.9c-43.3,18.1-94.7,77.6-112.7,99.8
				c-28.3-4.2-69.7-4.8-70.3-4.8c-4.5,0.1-42.8,1-69.7,5c-18.2-22.1-69.7-81.6-113-99.5c-8.3-3.4-17.7-0.5-22.4,7
				C96,12,52,82.9,68.3,216.1c-3.9,14.7-14.7,58.9-12.9,91.4c3,53.6,142.4,125.3,249,127.9c105.9-2.9,244.8-75.1,247.6-128.7
				C553.7,274.3,542.7,230.1,538.8,215.4z M104.9,215.1c-11.4-87.9,5.8-145.9,16.5-171.7c41.6,26.6,89.5,88.1,90,88.8
				c4.4,5.6,11.7,8.2,18.6,6.6c20.6-4.7,64.5-6,73.2-6.3c5.3,0.1,52,1.1,73.7,6c7,1.6,14.2-1,18.6-6.6c2.1-2.7,49-62.8,89.7-89
				c10.8,25.8,28.2,83.8,17.1,171.7c-0.3,2.4-0.1,4.8,0.6,7.2c0.1,0.5,14.5,51.4,12.9,83.2c-1.1,19.9-104.9,91.5-211.3,94.4
				c-107-2.6-211.4-73.9-212.6-93.8c-1.8-31.7,12.5-82.7,12.6-83.3C105,220,105.2,217.6,104.9,215.1z"/>
			<g>
				<g>
					<g>
						<path class="st1" d="M230.9,246.2c0,13.5-11,24.4-24.7,24.4c-13.7,0-24.7-10.9-24.8-24.3c0-13.5,11-24.4,24.7-24.4
							C219.8,221.8,230.9,232.7,230.9,246.2z"/>
					</g>
					<g>
						<path class="st1" d="M425.6,245.9c0,13.5-11,24.4-24.7,24.4c-13.7,0-24.7-10.9-24.8-24.3c0-13.5,11-24.4,24.7-24.4
							C414.5,221.5,425.6,232.4,425.6,245.9z"/>
					</g>
					<g>
						<g>
							<g>
								<g>
									<path class="st1" d="M271.4,333.2c-26.2,0-37.8-23.1-40.3-35.3c-0.9-4.3,2-8.6,6.4-9.5c4.4-0.9,8.7,1.9,9.6,6.3
										c0.2,1,5.1,22.5,24.3,22.4c19.3,0,24.1-21.6,24.3-22.5c0.9-4.3,5.2-7.1,9.6-6.3c4.4,0.9,7.3,5.1,6.4,9.4
										C309.2,310.1,297.6,333.2,271.4,333.2z"/>
								</g>
							</g>
							<g>
								<g>
									<path class="st1" d="M336,333.1c-26.2,0-37.8-23.1-40.3-35.3c-0.9-4.3,2-8.6,6.4-9.5c4.4-0.9,8.7,1.9,9.6,6.3
										c0.2,1,5.1,22.5,24.3,22.4c19.3,0,24.1-21.6,24.3-22.5c0.9-4.3,5.2-7.1,9.6-6.3c4.4,0.9,7.3,5.1,6.4,9.4
										C373.7,310,362.2,333.1,336,333.1z"/>
								</g>
							</g>
						</g>
						<path class="st1" d="M311.2,280.3l-15-0.1c-8.5-0.1-13.9,9.2-9.6,16.6l7.4,12.8c4.2,7.3,14.7,7.4,19,0.1l7.6-12.7
							C325,289.6,319.8,280.3,311.2,280.3z"/>
					</g>
				</g>
				<g>
					<g>
						<path class="st1" d="M597.5,227.7l-131,17.2c-4.6,0.6-7.9,4.8-7.3,9.4c0.6,4.2,4.2,7.3,8.4,7.2c0.4,0,0.7,0,1.1-0.1l131-17.2
							c4.6-0.6,7.9-4.8,7.3-9.4C606.4,230.3,602.2,227.1,597.5,227.7z"/>
						<path class="st1" d="M582.9,309.9l-110.3-27.5c-4.6-1.1-9.2,1.6-10.3,6c-1.2,4.5,1.6,9,6.1,10.1l110.3,27.5
							c0.7,0.2,1.4,0.3,2.1,0.3c3.8,0,7.2-2.5,8.2-6.3C590.2,315.6,587.5,311.1,582.9,309.9z"/>
					</g>
					<g>
						<path class="st1" d="M140.7,245.4L9.6,228.6c-4.6-0.6-8.9,2.6-9.5,7.2c-0.6,4.6,2.7,8.8,7.3,9.4L138.5,262
							c0.4,0,0.7,0.1,1.1,0.1c4.2,0,7.8-3.1,8.4-7.3C148.6,250.2,145.3,246,140.7,245.4z"/>
						<path class="st1" d="M134.7,282.9L24.4,310.8c-4.5,1.1-7.3,5.7-6.1,10.2c1,3.8,4.4,6.3,8.2,6.3c0.7,0,1.4-0.1,2.1-0.3
							l110.2-27.9c4.5-1.1,7.3-5.7,6.1-10.2C143.8,284.5,139.2,281.8,134.7,282.9z"/>
					</g>
				</g>
			</g>
		</g>
		<g>
			<g>
				<path class="st0" d="M146.5,533.8c-34.8,0-63.1-24.7-63.1-55.1v-38.5c0-30.4,28.3-55.1,63.1-55.1h3.4
					c34.8,0,63.1,24.7,63.1,55.1v38.5c0,30.4-28.3,55.1-63.1,55.1H146.5z"/>
				<path class="st1" d="M149.9,400.1c26.6,0,48.1,18,48.1,40.1v38.5c0,22.2-21.5,40.1-48.1,40.1h-3.4c-26.6,0-48.1-18-48.1-40.1
					v-38.5c0-22.2,21.5-40.1,48.1-40.1H149.9 M149.9,370.1h-3.4c-19.9,0-38.8,6.6-53.2,18.7c-15.8,13.2-24.9,31.9-24.9,51.4v38.5
					c0,19.5,9.1,38.2,24.9,51.4c14.5,12.1,33.4,18.7,53.2,18.7h3.4c19.9,0,38.8-6.6,53.2-18.7c15.8-13.2,24.9-31.9,24.9-51.4v-38.5
					c0-19.5-9.1-38.2-24.9-51.4C188.7,376.7,169.8,370.1,149.9,370.1L149.9,370.1z"/>
			</g>
			<g>
				<path class="st0" d="M457.2,533.8c-34.8,0-63.1-24.7-63.1-55.1v-38.5c0-30.4,28.3-55.1,63.1-55.1h3.4
					c34.8,0,63.1,24.7,63.1,55.1v38.5c0,30.4-28.3,55.1-63.1,55.1H457.2z"/>
				<path class="st1" d="M460.6,400.1c26.6,0,48.1,18,48.1,40.1v38.5c0,22.2-21.5,40.1-48.1,40.1h-3.4c-26.6,0-48.1-18-48.1-40.1
					v-38.5c0-22.2,21.5-40.1,48.1-40.1H460.6 M460.6,370.1h-3.4c-19.9,0-38.8,6.6-53.2,18.7c-15.8,13.2-24.9,31.9-24.9,51.4v38.5
					c0,19.5,9.1,38.2,24.9,51.4c14.5,12.1,33.4,18.7,53.2,18.7h3.4c19.9,0,38.8-6.6,53.2-18.7c15.8-13.2,24.9-31.9,24.9-51.4v-38.5
					c0-19.5-9.1-38.2-24.9-51.4C499.3,376.7,480.4,370.1,460.6,370.1L460.6,370.1z"/>
			</g>
			<g>
				<path class="st1" d="M447.9,520.3c0,0-13.5-15-2.3-37.9c0,0,1-9.9-8.2-2.5c-13.8,11.1-1.6,42.8-1.6,42.8L447.9,520.3z"/>
				<path class="st1" d="M478.8,520.7c0,0-13.5-15-2.3-37.9c0,0,1-9.9-8.3-2.5c-13.8,11.1-1.6,42.8-1.6,42.8L478.8,520.7z"/>
			</g>
			<g>
				<path class="st1" d="M135.9,520.3c0,0-13.5-15-2.3-37.9c0,0,1-9.9-8.2-2.5c-13.8,11.1-1.6,42.8-1.6,42.8L135.9,520.3z"/>
				<path class="st1" d="M166.8,520.7c0,0-13.5-15-2.3-37.9c0,0,1-9.9-8.3-2.5c-13.8,11.1-1.6,42.8-1.6,42.8L166.8,520.7z"/>
			</g>
		</g>
	</g>
</g>
</svg>
