<?xml version="1.0" encoding="utf-8"?>
<!-- Generator: Adobe Illustrator 22.0.1, SVG Export Plug-In . SVG Version: 6.00 Build 0)  -->
<svg version="1.1" id="Layer_1" xmlns="http://www.w3.org/2000/svg" xmlns:xlink="http://www.w3.org/1999/xlink" x="0px" y="0px"
	 viewBox="0 0 93.5 93.5" style="enable-background:new 0 0 93.5 93.5;" xml:space="preserve">
<style type="text/css">
	.st0{fill:#57C4F1;}
	.st1{fill:#FFFFFF;}
	.st2{fill:#F5D54F;}
	.st3{fill:#242424;}
	.st4{fill:#E35F9D;}
	.st5{fill-rule:evenodd;clip-rule:evenodd;fill:#FFFFFF;}
</style>
<g>
	
		<ellipse transform="matrix(0.3827 -0.9239 0.9239 0.3827 -14.3261 72.0217)" class="st3" cx="46.7" cy="46.7" rx="46.7" ry="46.7"/>
	<path class="st1" d="M80.1,34.2c-0.3-0.2-0.5-0.4-0.8-0.6c-0.5-0.4-1.1-0.9-1.6-1.4c-1.3-1.2-2.6-2.5-3.9-3.8
		c-2.1-2.1-4.3-4.2-6.4-6.2L67,21.8c-1.4-1.4-2.9-2.8-5.1-3.1c-0.4-0.1-0.7-0.1-1.1-0.2c-0.2,0-0.4-0.1-0.5-0.1c0,0-0.1,0-0.1,0H55
		c-0.1,0-0.3,0.1-0.4,0.2c-0.1,0.1-0.1,0.2-0.1,0.4c0.2,1.5-0.5,2.6-2.2,3.7c-1.6,1-3.7,1.6-5.7,1.6c-2.4,0-4.7-0.8-6.4-2.1
		c-0.8-0.6-1.6-1.6-1.4-3.1c0-0.1,0-0.3-0.1-0.4c-0.1-0.1-0.2-0.2-0.4-0.2h-5.4c0,0-0.1,0-0.1,0l-0.4,0.1c-0.3,0.1-0.6,0.1-0.9,0.2
		c-1.8,0.3-3.4,1.3-4.9,2.8l-1.4,1.4c-2.9,2.9-5.9,5.9-8.8,8.8c-0.6,0.6-1.3,1.2-2,1.7c-0.3,0.3-0.6,0.5-0.9,0.8
		c-0.1,0.1-0.2,0.2-0.2,0.4v0.5c0,0.2,0.1,0.3,0.2,0.4l12.4,9.8c0.2,0.1,0.5,0.1,0.6,0l2.8-2.4l0,0v31.9c0,0.3,0.2,0.5,0.5,0.5h34.2
		c0.3,0,0.5-0.2,0.5-0.5V42.8l2.8,2.4c0.2,0.2,0.5,0.2,0.6,0l12.4-9.8c0.1-0.1,0.2-0.2,0.2-0.4v-0.5C80.3,34.4,80.2,34.3,80.1,34.2z
		"/>
</g>
</svg>
