<?xml version="1.0" encoding="utf-8"?>
<!-- Generator: Adobe Illustrator 22.0.1, SVG Export Plug-In . SVG Version: 6.00 Build 0)  -->
<svg version="1.1" id="Layer_1" xmlns="http://www.w3.org/2000/svg" xmlns:xlink="http://www.w3.org/1999/xlink" x="0px" y="0px"
	 viewBox="0 0 93.5 93.5" style="enable-background:new 0 0 93.5 93.5;" xml:space="preserve">
<style type="text/css">
	.st0{fill:#57C4F1;}
	.st1{fill:#FFFFFF;}
	.st2{fill:#F5D54F;}
	.st3{fill:#242424;}
	.st4{fill:#E35F9D;}
	.st5{fill-rule:evenodd;clip-rule:evenodd;fill:#FFFFFF;}
</style>
<g>
	<ellipse transform="matrix(0.482 -0.8761 0.8761 0.482 -16.7387 65.1479)" class="st2" cx="46.7" cy="46.7" rx="46.7" ry="46.7"/>
	<g>
		<path class="st1" d="M28.9,47.9c-7.9,0-14.4-6.4-14.4-14.4c0-7.9,6.4-14.4,14.4-14.4c7.9,0,14.4,6.4,14.4,14.4
			C43.3,41.5,36.9,47.9,28.9,47.9z M28.9,24c-5.3,0-9.5,4.3-9.5,9.5c0,5.3,4.3,9.5,9.5,9.5c5.3,0,9.5-4.3,9.5-9.5
			C38.5,28.3,34.2,24,28.9,24z"/>
		<g>
			<path class="st1" d="M32,33.6c0,1.7-1.3,3-3,3c-1.7,0-3-1.3-3-3c0-1.7,1.3-3,3-3C30.6,30.5,32,31.9,32,33.6z"/>
		</g>
		<g>
			<g>
				<path class="st1" d="M64.6,47.8H28.9c-1.3,0-2.3-1-2.3-2.3c0-1.3,0.9-2.3,2.2-2.4c0.1,0,6.1-0.5,8.4-4.7
					c1.5-2.9,1.7-5.8,0.5-8.6c-0.9-2-2.3-3.4-2.6-3.7L34.9,26c-1-0.6-3.4-1.9-5.2-2.1c-1.2-0.1-2.2-1.2-2.1-2.4
					c0.1-1.2,1.1-2.2,2.3-2.2h34.6c7.9,0,14.3,6.4,14.3,14.3C78.9,41.4,72.5,47.8,64.6,47.8z M39.5,43.2h25.1c5.3,0,9.6-4.3,9.6-9.6
					c0-5.3-4.3-9.6-9.6-9.6H39.4c2.2,2.6,6.1,8.8,1.9,16.7C40.8,41.6,40.2,42.4,39.5,43.2z"/>
			</g>
			<g>
				<path class="st1" d="M30,23.9h-1c-1.2,0-2.3-1-2.3-2.2c-0.1-1.2,0.8-2.3,2.1-2.5c0.5-0.1,1-0.1,1.5,0c1.2,0.1,2.2,1.2,2.1,2.4
					C32.2,23,31.2,23.9,30,23.9z"/>
			</g>
		</g>
		<path class="st1" d="M28.9,71.9c-7.9,0-14.4-6.4-14.4-14.4c0-7.9,6.4-14.4,14.4-14.4c7.9,0,14.4,6.4,14.4,14.4
			C43.3,65.4,36.9,71.9,28.9,71.9z M28.9,48c-5.3,0-9.5,4.3-9.5,9.5c0,5.3,4.3,9.5,9.5,9.5c5.3,0,9.5-4.3,9.5-9.5
			C38.5,52.3,34.2,48,28.9,48z"/>
		<g>
			<path class="st1" d="M32,57.5c0,1.7-1.3,3-3,3c-1.7,0-3-1.3-3-3c0-1.7,1.3-3,3-3C30.6,54.5,32,55.8,32,57.5z"/>
		</g>
		<g>
			<g>
				<path class="st1" d="M47,74.7c-0.2,0-0.4-0.1-0.5-0.2c-0.1-0.1-0.2-0.3-0.2-0.5c0.1-13.4-2.5-20.1-4.7-23.2
					C39.3,47.3,37.1,47,37,47c-0.4,0-0.7-0.4-0.7-0.8c0-0.4,0.3-0.7,0.7-0.7h22.5c0,0,0,0,0,0c3.4,0.2,6.4,1.9,8.7,5
					c1.8,2.4,3.3,5.7,4.4,9.7c1.9,6.8,2,13.4,2,13.7c0,0.2-0.1,0.4-0.2,0.6c-0.1,0.1-0.3,0.2-0.5,0.2H47z"/>
			</g>
			<g>
				<path class="st1" d="M59.5,46.2C73.6,47.1,74,73.9,74,73.9H47c0.1-26.8-10-27.6-10-27.6H59.5 M59.5,44.7H37.1
					c-0.8,0-1.5,0.7-1.5,1.5c0,0.8,0.6,1.5,1.4,1.6c0.2,0,2.2,0.4,4.2,3.5c2.1,3.1,4.5,9.6,4.4,22.6c0,0.4,0.2,0.8,0.4,1.1
					c0.3,0.3,0.7,0.5,1.1,0.5H74c0.4,0,0.8-0.2,1.1-0.5c0.3-0.3,0.4-0.7,0.4-1.1c0-0.3-0.1-7-2-13.9c-1.1-4.1-2.7-7.5-4.6-10
					C66.4,46.7,63.3,44.9,59.5,44.7C59.6,44.7,59.6,44.7,59.5,44.7L59.5,44.7z"/>
			</g>
		</g>
		<path class="st1" d="M64.6,43.2H30c0.1,0,0.1,0,0.2,0c1.2,0.1,2.2,1.2,2.1,2.4c0,0.1,0,0.2,0,0.4c5,1.4,8.6,6,8.6,11.5
			c0,5.3-3.4,9.8-8.2,11.3c0,0.1,0.1,0.3,0.1,0.4c0.1,1.2-0.8,2.3-2,2.5c-0.1,0-0.1,0-0.2,0h34c7.9,0,14.3-6.4,14.3-14.3
			C78.9,49.6,72.5,43.2,64.6,43.2z M64.6,67.1H39.7c0.2-0.3,0.5-0.7,0.7-1.1c5.2-8.9,1.3-15.5-1-18.1h25.2c5.3,0,9.6,4.3,9.6,9.6
			C74.2,62.8,69.9,67.1,64.6,67.1z"/>
	</g>
</g>
</svg>
