<?xml version="1.0" encoding="utf-8"?>
<!-- Generator: Adobe Illustrator 22.0.1, SVG Export Plug-In . SVG Version: 6.00 Build 0)  -->
<svg version="1.1" id="Layer_1" xmlns="http://www.w3.org/2000/svg" xmlns:xlink="http://www.w3.org/1999/xlink" x="0px" y="0px"
	 viewBox="0 0 93.5 93.5" style="enable-background:new 0 0 93.5 93.5;" xml:space="preserve">
<style type="text/css">
	.st0{fill:#57C4F1;}
	.st1{fill:#FFFFFF;}
	.st2{fill:#F5D54F;}
	.st3{fill:#242424;}
	.st4{fill:#E35F9D;}
	.st5{fill-rule:evenodd;clip-rule:evenodd;fill:#FFFFFF;}
</style>
<g>
	<ellipse transform="matrix(0.9216 -0.3882 0.3882 0.9216 -14.476 21.8055)" class="st4" cx="46.7" cy="46.7" rx="46.7" ry="46.7"/>
	<g>
		<path class="st1" d="M41.6,62.8L41.6,62.8c-2.5,0-3.8,1-4.3,3.3l-0.1,0.6h46.3l-0.9-0.8c-1.9-1.8-3.6-3.3-6.4-3.3
			c-0.1,0-0.1,0-0.2,0c-7,0.2-14.4,0.2-23.3,0.2C49.3,62.8,45.7,62.8,41.6,62.8z"/>
		<path class="st1" d="M81.7,67.8c-0.2,0-0.4,0-0.5,0c-0.1,0-0.3,0-0.4,0c-6.9,0-14,0-20.9,0c-6.9,0-14,0-20.9,0c-0.1,0-0.2,0-0.4,0
			c-0.2,0-0.4,0-0.6,0c-1.1,0-1.2,0.8-1.2,1.1c0,0.2,0,0.4,0.1,0.6c-0.1,0-0.3,0-0.4-0.1c-1.2-0.2-2.2-0.3-2.8-1.3
			c-1.5-2.4-2.4-5.2-2.8-8.1c-0.3-2.2,0.3-4.1,1.8-5.4c3-2.8,6.1-5.6,9.1-8.2c1.1-1,2.2-1.9,3.2-2.9c0.4,0.6,0.7,1.1,1.3,1.5
			L45,46.3c-3.9,3.3-7.8,6.4-11.7,9.6c-2.4,2-2.4,2.3-0.6,4.6c0.1,0.2,0.3,0.3,0.4,0.4c0.1,0,0.1,0.1,0.2,0.1l0.3,0.3l2.9-2.4
			c3.8-3.1,7.7-6.3,11.5-9.4l4.7-3.9c5.6-4.6,11.4-9.3,17.1-14c0.1-0.1,0.2-0.1,0.3-0.2c0.4-0.3,1.2-0.7,0.8-1.8
			c-0.6-1.8-1.8-2.1-2.4-2.1c-0.7,0-1.3,0.3-2,0.8c-0.3,0.2-0.5,0.4-0.8,0.7c-0.2,0.2-0.4,0.3-0.6,0.5L63,31.5
			c-3.5,2.8-7,5.8-10.6,8.7c-0.1,0.1-0.1,0.1-0.2,0.2c0,0,0,0,0,0c-0.2-0.6-0.5-0.9-0.8-1.3c-0.2-0.2-0.3-0.4-0.5-0.6
			c0.2-0.2,0.4-0.4,0.6-0.6c0.6-0.6,1.3-1.2,2-1.7c0.7-0.5,1-1,1-1.5c0-0.7-0.4-1.1-0.9-1.5c-0.2-0.2-0.4-0.4-0.5-0.6
			c-0.1-0.2-0.5-0.9-1.2-0.9c-0.5,0-0.9,0.4-1.3,0.8l-0.1,0.1c-0.5,0.5-1.1,1-1.7,1.5c-1.1,1-2.2,2-3.1,3c-0.5,0.5-0.8,0.8-1.1,0.8
			c-0.3,0-0.6-0.3-1.1-1c-1.1-1.5-2.2-2.8-3.4-4.1c-0.8-0.8-1.1-1.7-1-3c0.5-5,1-7,1.5-9c0.5-2,1-4.2,1.5-9.2
			c0.1-0.8,0.1-1.7-0.4-2.3c-0.3-0.4-0.8-0.6-1.4-0.6c-0.1,0-0.2,0-0.2,0c-1.7,0-1.8,1.5-1.9,2.4l0,0.1c0,0.4-0.1,0.7-0.1,0.9
			C38,12,37.9,12,37.7,12c-0.6,0-0.7,0.8-0.8,2.4c-0.4,7.3-1.4,13.4-4.7,18.9c-0.5,0.8-0.8,1.6-1.2,2.4c-0.2,0.5-0.4,1.1-0.7,1.6
			c-1,2-1.5,4.1-1.5,6.4c0,0.2,0,0.3,0,0.5c0.1,0.5,0.1,0.5-0.2,0.6c-0.1,0-0.1,0-0.2,0c-0.3,0-0.5-0.1-0.8-0.9
			c-1-2.6-2.1-5.1-2.9-7.2c-0.9-2.2-2.3-3.4-4.2-3.7c-0.4-0.1-0.8-0.1-1.2-0.1c-3,0-4.8,2.1-4.8,5.5c0,10.5,0,21.7,0.1,34.2
			c0,3.6,1.5,5.1,5.1,5.1c12.5,0,25.1,0,37.6,0.1l6.5,0c1.5,0,2.4,0,2.9-0.6c0.5-0.6,0.5-1.4,0.4-3.2c-0.1-1.6-1.5-3.3-2.8-3.9
			l3.9,0c3.7,0,8.1,0,12.5,0c0.1,0,0.2,0,0.4,0c0.2,0,0.4,0.1,0.6,0.1c0.7,0,1.1-0.4,1.1-1.1c0-0.4-0.1-0.7-0.3-0.9
			C82.4,67.9,82.1,67.8,81.7,67.8z M21.3,43.2c-0.7,0-1.2,0.2-1.6,0.5c-0.4,0.5-0.4,1.1-0.3,1.5c0,0.2,0,0.4,0,0.6
			c0,0.2,0,0.4,0,0.6c-0.1,0.6-0.1,1.2,0.3,1.6c0.3,0.3,0.8,0.5,1.4,0.5l0.1,0c0.6,0,1.1-0.2,1.4-0.5c0.4-0.4,0.4-1,0.4-1.5
			c0-0.1,0-0.2,0-0.3c0-0.1,0-0.2,0-0.3c0-0.2,0-0.4,0-0.7c0-0.1,0-0.2,0-0.3c0-0.2,0-0.4,0-0.6c0.5,1.3,1.1,2.6,1.5,3.9
			c0.3,0.8,0.3,1.6,0,2.1c-1.5,2.1-1.6,4.4-1.5,6.8c0,0.5-0.1,0.9-0.2,1.1c-0.2,0.2-0.5,0.2-1.1,0.2c-0.1,0-0.3,0-0.5,0
			c-0.2,0-0.3,0-0.5,0c-0.1,0-0.3,0-0.4,0c-0.5,0-0.7-0.1-0.9-0.2c-0.2-0.2-0.3-0.5-0.3-1.1c0-1.8,0-3.5,0-5.3c0-0.8,0-1.6,0-2.3
			c0-0.7,0-1.5,0-2.2c0-1.6,0-3.4,0-5c0-1.3,0.6-1.6,1.1-1.8c0.1,0,0.2,0,0.3,0c0.6,0,1.1,0.6,1.3,1.2c0.3,0.7,0.6,1.4,0.9,2.1
			C22.4,43.4,22,43.2,21.3,43.2z M19.5,65l0-0.3c0-1.1,0.4-1.1,0.8-1.1c0.2,0,0.4,0,0.7,0.1c0.2,0,0.5,0.1,0.7,0.1l0.1,0
			c1.5,0,2.4,0.3,3,0.9c0.6,0.6,0.9,1.7,0.8,3.3c0,0.2,0,0.4,0,0.6c0,0.4,0,0.8-0.1,0.9c0,0-0.1,0-0.5,0c-0.2,0-0.5,0-0.8,0
			c-0.4,0-0.9,0-1.4,0c-1.7-0.1-2.6-0.1-2.9-0.5C19.4,68.3,19.4,67.2,19.5,65z M29,51.2c0.4-0.7,0.9-1.3,1.5-1.7
			c1.5-1.1,2.1-2.5,2.8-4l0.1-0.2c1.1-2.4,2.1-4.7,3.3-7.2c0.4-0.8,0.7-1.5,1.1-2.3c0.3,0.3,0.5,0.6,0.8,0.9c1,1.2,2,2.3,3,3.4
			c0.2,0.3,0.3,0.4,0.3,0.4c0,0,0,0.1-0.2,0.2c-1.1,1-2.3,1.9-3.4,2.9C35.2,46.2,32.2,48.8,29,51.2z M52.1,70.2
			c-0.2,0.3-0.4,0.6-0.3,1.1c0,0.2,0,0.4-0.1,0.5c-0.1,0.1-0.5,0.1-0.7,0.1c0,0-0.1,0-0.1,0c-1,0-2,0-3,0c-0.7,0-1.5,0-2.2,0l0,0
			c-0.1,0-0.1,0-0.2,0c-0.1,0-0.1,0-0.2,0c-0.1,0-0.2,0-0.2,0c0-0.7-0.1-1.2-0.5-1.5c-0.1-0.1-0.2-0.2-0.3-0.2c2.6,0,5.2,0,7.5,0
			h0.6C52.1,70.1,52.1,70.1,52.1,70.2z"/>
	</g>
</g>
</svg>
