<?xml version="1.0" encoding="utf-8"?>
<!-- Generator: Adobe Illustrator 22.0.1, SVG Export Plug-In . SVG Version: 6.00 Build 0)  -->
<svg version="1.1" id="Layer_1" xmlns="http://www.w3.org/2000/svg" xmlns:xlink="http://www.w3.org/1999/xlink" x="0px" y="0px"
	 viewBox="0 0 93.5 93.5" style="enable-background:new 0 0 93.5 93.5;" xml:space="preserve">
<style type="text/css">
	.st0{fill:#57C4F1;}
	.st1{fill:#FFFFFF;}
	.st2{fill:#F5D54F;}
	.st3{fill:#242424;}
	.st4{fill:#E35F9D;}
	.st5{fill-rule:evenodd;clip-rule:evenodd;fill:#FFFFFF;}
</style>
<g>
	<circle class="st0" cx="46.7" cy="46.7" r="46.7"/>
</g>
<g>
	<g>
		<g>
			<path class="st1" d="M54.7,18.3l13.8,13.8v39.5c0,2.1-1.7,3.9-3.9,3.9H29.4c-2.1,0-3.9-1.7-3.9-3.9V22.2c0-2.1,1.7-3.9,3.9-3.9
				H54.7 M54.7,13.1H29.4c-5,0-9.1,4.1-9.1,9.1v49.4c0,5,4.1,9.1,9.1,9.1h35.2c5,0,9.1-4.1,9.1-9.1V32.1c0-1.4-0.5-2.7-1.5-3.7
				L58.4,14.6C57.4,13.7,56.1,13.1,54.7,13.1L54.7,13.1z"/>
		</g>
		<g>
			<path class="st1" d="M54.7,18.3l13.8,13.8h-9.9c-2.1,0-3.9-1.7-3.9-3.9V18.3 M54.7,13.1c-0.7,0-1.3,0.1-2,0.4
				c-1.9,0.8-3.2,2.7-3.2,4.8v9.9c0,5,4.1,9.1,9.1,9.1h9.9c2.1,0,4-1.3,4.8-3.2c0.8-1.9,0.4-4.2-1.1-5.7L58.4,14.6
				C57.4,13.6,56,13.1,54.7,13.1L54.7,13.1z"/>
		</g>
	</g>
	<g>
		<path class="st1" d="M44,34.9H30.5c-1.4,0-2.6-1.2-2.6-2.6c0-1.4,1.2-2.6,2.6-2.6H44c1.4,0,2.6,1.2,2.6,2.6
			C46.6,33.7,45.4,34.9,44,34.9z"/>
	</g>
	<g>
		<path class="st1" d="M49.2,43.2H30.5c-1.4,0-2.6-1.2-2.6-2.6c0-1.4,1.2-2.6,2.6-2.6h18.7c1.4,0,2.6,1.2,2.6,2.6
			C51.8,42.1,50.6,43.2,49.2,43.2z"/>
	</g>
	<g>
		<path class="st1" d="M64.2,53.8H30.5c-1.4,0-2.6-1.2-2.6-2.6c0-1.4,1.2-2.6,2.6-2.6h33.7c1.4,0,2.6,1.2,2.6,2.6
			C66.8,52.6,65.7,53.8,64.2,53.8z"/>
	</g>
	<g>
		<path class="st1" d="M64.2,61.3H30.5c-1.4,0-2.6-1.2-2.6-2.6c0-1.4,1.2-2.6,2.6-2.6h33.7c1.4,0,2.6,1.2,2.6,2.6
			C66.8,60.1,65.7,61.3,64.2,61.3z"/>
	</g>
	<g>
		<path class="st1" d="M64.2,68.6H30.5c-1.4,0-2.6-1.2-2.6-2.6c0-1.4,1.2-2.6,2.6-2.6h33.7c1.4,0,2.6,1.2,2.6,2.6
			C66.8,67.4,65.7,68.6,64.2,68.6z"/>
	</g>
</g>
</svg>
