<?xml version="1.0" encoding="utf-8"?>
<!-- Generator: Adobe Illustrator 22.0.1, SVG Export Plug-In . SVG Version: 6.00 Build 0)  -->
<svg version="1.1" id="Layer_1" xmlns="http://www.w3.org/2000/svg" xmlns:xlink="http://www.w3.org/1999/xlink" x="0px" y="0px"
	 viewBox="0 0 93.5 93.5" style="enable-background:new 0 0 93.5 93.5;" xml:space="preserve">
<style type="text/css">
	.st0{fill:#57C4F1;}
	.st1{fill:#FFFFFF;}
	.st2{fill:#F5D54F;}
	.st3{fill:#242424;}
	.st4{fill:#E35F9D;}
	.st5{fill-rule:evenodd;clip-rule:evenodd;fill:#FFFFFF;}
</style>
<g>
	<circle class="st0" cx="46.7" cy="46.7" r="46.7"/>
	<g>
		<path class="st1" d="M69.1,49.2h-2v-0.8c0-2.4-1.9-4.3-4.3-4.3h-21c-2.4,0-4.3,1.9-4.3,4.3v28.3c0,2.4,1.9,4.3,4.3,4.3h21
			c2.4,0,4.3-1.9,4.3-4.3v-1h2c4.3,0,7.8-3.5,7.8-7.8V57.1C76.9,52.7,73.4,49.2,69.1,49.2z M72.8,67.9c0,2-1.6,3.7-3.7,3.7h-2V53.4
			h2c2,0,3.7,1.6,3.7,3.7V67.9z"/>
		<g>
			<path class="st5" d="M46.1,75.6c0.5-3.8,1-7.7,1.5-11.5c0.9-6.6,1.7-13.2,2.6-19.9h-8.4c-2.4,0-4.3,1.9-4.3,4.3v28.3
				c0,2,1.4,3.7,3.3,4.2C43.6,80.5,45.7,78.3,46.1,75.6z"/>
			<path class="st5" d="M33.1,76.7V48.5c0-4.8,3.9-8.8,8.8-8.8h9.1c0-0.1,0-0.3,0.1-0.4c0.4-3,0.5-5.8-1-8.6c-0.6-1.1-1-2.4-1.5-3.6
				c-0.9-2.5-2.1-4.6-5.1-4.9c0-1.5-0.1-2.9,0-4.2c0.2-2.3-0.6-4-2.7-5c-4.2,0-8.5,0-12.7,0c-2.3,0.8-3.2,2.4-3,4.8
				c0.1,1.5,0,3,0,4.5c-2.4,0.4-3.8,1.6-4.6,3.7c-1,2.6-2.1,5.1-3,7.7c-0.2,0.6-0.4,1.4-0.3,2c0.7,5.8,1.5,11.7,2.2,17.5
				c1,7.3,2,14.6,2.9,22c0.4,3.5,2.8,5.8,6.3,5.9c1.9,0,3.8,0.1,5.7,0.1C33.5,79.7,33.1,78.3,33.1,76.7z M19.6,34
				c1.2-2.8,2.2-5.6,3.5-8.2c0.3-0.7,1.5-1.2,2.4-1.2c5.8-0.1,11.7-0.1,17.5,0c0.8,0,2.1,0.7,2.4,1.4c1.3,2.6,2.3,5.3,3.4,8.1
				C39,36.2,29.4,36.2,19.6,34z"/>
		</g>
	</g>
</g>
</svg>
