<?xml version="1.0" encoding="utf-8"?>
<!-- Generator: Adobe Illustrator 22.0.1, SVG Export Plug-In . SVG Version: 6.00 Build 0)  -->
<svg version="1.1" id="Layer_1" xmlns="http://www.w3.org/2000/svg" xmlns:xlink="http://www.w3.org/1999/xlink" x="0px" y="0px"
	 viewBox="0 0 93.5 93.5" style="enable-background:new 0 0 93.5 93.5;" xml:space="preserve">
<style type="text/css">
	.st0{fill:#57C4F1;}
	.st1{fill:#FFFFFF;}
	.st2{fill:#F5D54F;}
	.st3{fill:#242424;}
	.st4{fill:#E35F9D;}
	.st5{fill-rule:evenodd;clip-rule:evenodd;fill:#FFFFFF;}
</style>
<circle class="st4" cx="46.7" cy="46.7" r="46.7"/>
<g>
	<g>
		<path class="st1" d="M69.4,22.7c2.8,0,5,2.2,5,5v25.1L56.5,70.7H24.1c-2.8,0-5-2.2-5-5v-38c0-2.8,2.2-5,5-5H69.4 M69.4,17.5H24.1
			c-5.6,0-10.2,4.6-10.2,10.2v38c0,5.6,4.6,10.2,10.2,10.2h32.5c1.4,0,2.7-0.5,3.7-1.5l17.8-17.8c1-1,1.5-2.3,1.5-3.7V27.7
			C79.6,22.1,75,17.5,69.4,17.5L69.4,17.5z"/>
		<path class="st1" d="M74.4,52.9L74.4,52.9 M74.4,52.9L56.5,70.7V57.9c0-2.8,2.2-5,5-5H74.4 M74.4,47.7L74.4,47.7H61.6
			c-5.6,0-10.2,4.6-10.2,10.2v12.8c0,2.1,1.3,4,3.2,4.8c0.6,0.3,1.3,0.4,2,0.4c1.3,0,2.7-0.5,3.7-1.5L78,56.6c1-0.9,1.5-2.2,1.5-3.7
			C79.6,50,77.3,47.7,74.4,47.7C74.4,47.7,74.4,47.7,74.4,47.7L74.4,47.7L74.4,47.7z"/>
	</g>
	<polygon class="st1" points="37.5,29.8 41.7,38.3 51,39.6 44.3,46.2 45.9,55.5 37.5,51.1 29.2,55.5 30.8,46.2 24,39.6 33.4,38.3 	
		"/>
	<polygon class="st1" points="59.6,28.7 61.8,33.3 66.9,34 63.2,37.6 64.1,42.6 59.6,40.2 55,42.6 55.9,37.6 52.3,34 57.3,33.3 	"/>
</g>
</svg>
