<?xml version="1.0" encoding="utf-8"?>
<!-- Generator: Adobe Illustrator 22.0.1, SVG Export Plug-In . SVG Version: 6.00 Build 0)  -->
<svg version="1.1" id="Layer_1" xmlns="http://www.w3.org/2000/svg" xmlns:xlink="http://www.w3.org/1999/xlink" x="0px" y="0px"
	 viewBox="0 0 93.5 93.5" style="enable-background:new 0 0 93.5 93.5;" xml:space="preserve">
<style type="text/css">
	.st0{fill:#57C4F1;}
	.st1{fill:#FFFFFF;}
	.st2{fill:#F5D54F;}
	.st3{fill:#242424;}
	.st4{fill:#E35F9D;}
	.st5{fill-rule:evenodd;clip-rule:evenodd;fill:#FFFFFF;}
</style>
<g>
	
		<ellipse transform="matrix(0.2881 -0.9576 0.9576 0.2881 -11.4803 78.0202)" class="st3" cx="46.7" cy="46.7" rx="46.7" ry="46.7"/>
	<path class="st1" d="M58.8,56.6c0.8,0,1.4,0.5,1.9,1.5c1.1,2.1,2.1,4.3,3.2,6.4c0.5,1,1.2,1.5,2,1.5c0.4,0,0.9-0.1,1.3-0.4
		c1.4-0.7,2.9-1.4,4.3-2.2c0.3-0.3,0.5-0.7,0.6-1.1c0.3-0.9,0.1-1.9-0.5-3C66,49.4,60.9,39.2,56.3,29.3c-2-4.4-4.5-10-9.1-13.1
		c-2-1.4-4.4-2.1-6.9-2.1c-2.3,0-4.8,0.5-7.7,1.7c-4.9,2.8-9.3,6.8-10.1,12.8c-0.7,5.2,1.4,10.4,3.5,15c5,11,9.8,22.1,14.8,33
		c0.5,1.2,1.3,1.8,2.2,1.8c0.2,0,0.4,0,0.6-0.1c0.1-0.1,0.2-0.1,0.3-0.2c1.3-0.7,2.6-1.4,3.8-2.1c1.9-1,2.4-2.8,1.5-4.8
		c-1-2.1-2-4.3-3-6.4c-0.4-0.9-0.3-1.4,0.6-1.9c1.2-0.6,2.3-1.2,3.4-1.8c0.2-0.4,0.6-0.8,1.2-1.1c2-1.1,4-2.1,6-3.2
		C58,56.7,58.4,56.6,58.8,56.6z M51.6,44.1c-2,1-4,2-6,3c-0.4,0.2-0.8,0.3-1.2,0.3c-0.4,0-0.8-0.2-1.2-0.5c-0.9,0.5-1.9,1-3,1.6
		c-0.2,0.1-0.5,0.2-0.6,0.2h0c-0.3,0-0.6-0.3-0.9-0.8c-1.1-2.6-2.3-5.3-3.5-8.2l0,0c-1.4-3.2-0.8-5,2.2-6.5c0.3-0.1,0.6-0.3,0.9-0.4
		c0.4-1.4,1.5-2.6,3.4-3.5c1.1-0.6,2.1-0.8,3-0.8c2,0,3.4,1.4,4.4,4c1.2,2.8,2.4,5.5,3.6,8.3C53.3,42.2,52.9,43.3,51.6,44.1z"/>
	<path class="st1" d="M42.1,33.9c-0.1,0.2,0,0.8,0.5,1.9c0,0,0,0,0,0.1c1,2.4,2,4.6,2.9,6.8c1.1-0.6,2.1-1.1,3-1.5
		c-1-2.3-2.1-4.8-3.1-7.2c0,0,0-0.1,0-0.1c-0.1-0.1-0.1-0.3-0.2-0.4c-0.3-0.6-0.6-0.9-0.8-1c-0.2,0.1-0.5,0.2-0.9,0.3
		C42.5,33.4,42.2,33.8,42.1,33.9z"/>
	<path class="st1" d="M60.7,66.9c-0.6-1.1-1.1-2.3-1.7-3.4c-0.4-0.7-0.7-1.5-1.1-2.2c-1.1,0.6-2.2,1.1-3.3,1.7
		c0.8,1.8,1.7,3.6,2.5,5.4c0.1,0.2,0.2,0.5,0.3,0.7c0.8,0.8,1.6,0.9,2.1,0.9c0.6,0,1.2-0.2,1.8-0.5c0.4-0.2,0.8-0.4,1.1-0.6
		C61.7,68.5,61.1,67.8,60.7,66.9z"/>
	<path class="st1" d="M37.3,78.3c-3-6.5-5.9-13.1-8.7-19.4c-2-4.5-4.1-9.1-6.1-13.6c-2.3-5.1-4.7-11-3.9-17.2
		c0.1-0.8,0.3-1.6,0.5-2.4c-1.5,2-2.3,4.3-2.6,6.6c-0.7,5.3,1.5,10.6,3.5,15.1c2,4.4,4,8.9,5.9,13.2c2.7,6.2,5.6,12.5,8.4,18.8
		c0.9,2,2.3,2.3,3.1,2.3c0.6,0,1.1-0.2,1.7-0.5c0.1-0.1,0.2-0.1,0.3-0.2C38.7,80.5,37.9,79.6,37.3,78.3z"/>
	<path class="st1" d="M76.6,57.9c-5.7-10.2-11-20.6-15.9-31.2c-2.1-4.7-4.6-10.1-9-13.1c-2.1-1.4-4.3-2-6.5-2
		c-3.3,0-6.6,1.2-9.6,2.6c-5.9,2.8-12.1,7.2-13,14.3c-0.7,5.2,1.4,10.4,3.5,15c5,11,9.8,22.1,14.8,33c0.5,1.2,1.3,1.8,2.2,1.8
		c0.4,0,0.8-0.1,1.2-0.4c2.7-1.5,5.4-3,8.1-4.5c1.4-0.8,1.8-2,1.1-3.5c-1-2.2-2.1-4.4-3.1-6.6c-0.7-1.5-0.3-2.7,1.1-3.4
		c2-1.1,4-2.1,6-3.2c0.5-0.2,0.9-0.4,1.3-0.4c0.8,0,1.4,0.5,1.9,1.5c1.1,2.1,2.1,4.3,3.2,6.4c0.5,1,1.2,1.5,2,1.5
		c0.4,0,0.9-0.1,1.3-0.4c2.8-1.4,5.6-2.8,8.4-4.1C77.2,60.7,77.5,59.5,76.6,57.9z M51.6,44.1c-2,1-4,2-6,3c-0.4,0.2-0.8,0.3-1.2,0.3
		c-0.8,0-1.5-0.5-1.9-1.5c-1.2-2.8-2.4-5.6-3.6-8.4c-1.6-3.7-0.9-6.3,2.8-8.2c1.1-0.6,2.1-0.8,3-0.8c2,0,3.4,1.4,4.4,4
		c1.2,2.8,2.4,5.5,3.6,8.3C53.3,42.2,52.9,43.3,51.6,44.1z"/>
</g>
</svg>
