<?xml version="1.0" encoding="utf-8"?>
<!-- Generator: Adobe Illustrator 22.0.1, SVG Export Plug-In . SVG Version: 6.00 Build 0)  -->
<svg version="1.1" id="Layer_1" xmlns="http://www.w3.org/2000/svg" xmlns:xlink="http://www.w3.org/1999/xlink" x="0px" y="0px"
	 viewBox="0 0 93.5 93.5" style="enable-background:new 0 0 93.5 93.5;" xml:space="preserve">
<style type="text/css">
	.st0{fill:#57C4F1;}
	.st1{fill:#FFFFFF;}
	.st2{fill:#F5D54F;}
	.st3{fill:#242424;}
	.st4{fill:#E35F9D;}
	.st5{fill-rule:evenodd;clip-rule:evenodd;fill:#FFFFFF;}
</style>
<g>
	<circle class="st2" cx="46.7" cy="46.7" r="46.7"/>
	<g>
		<g>
			<path class="st1" d="M75.8,30.8c1-1.7,1.2-3.3,0.9-4.4c0-0.4-0.1-0.8-0.3-1.2c0,0,0,0-0.1,0c-0.4-0.8-0.9-1.4-1.1-1.6
				c-0.1-0.1-0.2-0.2-0.2-0.3c-1.2-1.4-2.6-2.4-4.4-2.6c-2.4-0.3-4.4,0.5-6.2,1.9c-1.3,1-2.4,2.1-3.5,3.3c-3.4,3.5-6.8,7-10.2,10.6
				c-3.6,3.7-7.3,7.5-10.9,11.2c-0.2,0.2-0.5,0.5-0.7,0.7l-3.6,3.7c-3,3.1-6,6.2-9.1,9.3c-2.8,2.9-5.7,5.8-8.5,8.8
				c-0.5,0.6-1,1.3-1.3,2c-0.4,1,0.1,1.5,1.2,1.2c0.8-0.3,1.7-0.7,2.4-1.2c3.4-2.4,6.8-4.9,10.3-7.3c4.7-3.3,9.3-6.7,14-10.1
				l4.4-3.3c0,0,0,0,0,0c0.2,0,0.3-0.1,0.5-0.2c1.8-1.3,3.7-2.6,5.5-3.9c5.6-4,11.2-8.1,16.8-12.1C73.4,34.1,74.9,32.7,75.8,30.8z
				 M70.7,31c-3.9,2.8-7.8,5.6-11.7,8.4c-0.9,0.7-2,0.5-2.7-0.3c-0.7-0.8-0.6-1.9,0.2-2.7c1-1,2-2,2.9-3c2.3-2.4,4.5-4.7,6.8-7
				c0.5-0.5,1.2-0.9,1.8-1.1c1.4-0.3,2.4,0,3,0.5c0,0,0,0-0.1,0c0.7,0.6,1,1.3,1.1,1.8c0.1,0.2,0.1,0.4,0.1,0.4
				C72.3,29.3,71.7,30.3,70.7,31z"/>
		</g>
		<g>
			<path class="st1" d="M63.6,79.4c-1.4,0-2.9-0.2-4.5-0.7c-3.8-1.1-5.5-3.5-6.2-5.2c-2.5-6.1,1.9-14.3,2.4-15.2
				c0-0.1,0.1-0.1,0.1-0.2c4.6-6.6,6.9-12.8,6.9-18.5c0-4.7-1.7-9-4.8-12.5c-6.6-7.4-18.9-10-26.8-5.7c-4,2.2-6.5,5-7.3,8.5
				c-1.5,6.6,3.3,13.5,3.3,13.5c0.8,1.2,0.6,2.8-0.6,3.6c-1.2,0.8-2.8,0.6-3.6-0.6c-0.3-0.4-6.2-8.8-4.2-17.7
				c1.1-4.9,4.4-8.9,9.9-11.9c10-5.5,24.9-2.4,33.2,6.8c4,4.5,6.1,10,6.1,16c0,6.7-2.6,13.9-7.7,21.3c-1,1.9-3.4,7.5-2.1,10.6
				c0.3,0.7,0.9,1.7,2.9,2.2c2.8,0.8,4.9,0.6,6.4-0.5c3.2-2.3,3.5-7.9,3.5-8c0.1-1.4,1.3-2.5,2.7-2.5c1.4,0.1,2.5,1.3,2.5,2.7
				c0,0.2-0.1,2.1-0.8,4.4c-1,3.3-2.6,5.9-4.9,7.5C68.2,78.7,66.1,79.4,63.6,79.4z"/>
		</g>
	</g>
</g>
</svg>
