<?xml version="1.0" encoding="utf-8"?>
<!-- Generator: Adobe Illustrator 22.0.1, SVG Export Plug-In . SVG Version: 6.00 Build 0)  -->
<svg version="1.1" id="Layer_1" xmlns="http://www.w3.org/2000/svg" xmlns:xlink="http://www.w3.org/1999/xlink" x="0px" y="0px"
	 viewBox="0 0 290.9 187.5" style="enable-background:new 0 0 290.9 187.5;" xml:space="preserve">
<style type="text/css">
	.st0{fill:#020202;}
</style>
<g>
	<path class="st0" d="M285.9,0h-30.8c-4.6,0-8.7,3-10.2,7.4l-0.2,0.5h-81.1l-0.2-0.1c-15.4-7-32.3-9-48.9-5.8l-46.3,9H46.5l0-0.7
		C46.3,4.5,41.6,0,35.8,0H5C2.2,0,0,2.2,0,5V34v7.6v46.8v6.2v30c0,2.7,2.2,5,5,5h30.8c5.9,0,10.7-4.8,10.7-10.7v-1l1,0.2
		c2.8,0.8,5.3,2,7.5,3.8l2.9,2.3l0,0.3c0.5,4.5,2.7,8.6,6.2,11.5c3.4,2.8,7.8,4.2,12.2,3.9l0.7,0l0.1,0.7c0.6,4.4,2.8,8.4,6.2,11.3
		c3.4,2.8,7.8,4.2,12.2,3.9l0.7,0l0.1,0.7c0.6,4.4,2.8,8.4,6.2,11.3c3.5,2.9,7.7,4.2,12.2,3.9l0.7,0l0.1,0.7
		c0.6,4.4,2.8,8.4,6.2,11.3c3.2,2.6,7,4,11,4c0.6,0,1.1,0,1.7-0.1c4.6-0.4,8.8-2.7,11.8-6.3l4.6-5.6c1.3-1.6,2.3-3.3,2.9-5.2
		l0.3-0.8l0.8,0.4c2.6,1.4,5.5,2.1,8.5,2.1l0.3,0c4.8-0.1,9.4-2,12.8-5.5c1.7-1.8,3.1-3.9,4-6.2l0.4-1.1l2.8,2.7
		c3.4,3.3,7.9,5.1,12.7,5.1c5,0,9.6-2,13-5.5c2-2,3.4-4.4,4.3-7.1l0.3-0.8l0.8,0.4c2.5,1.2,5.3,1.9,8.1,1.9c5,0,9.6-2,13-5.5
		c3.4-3.5,5.2-8.1,5.1-12.9c-0.1-4.9-2-9.4-5.5-12.8l-4.7-4.6l13.7-7.4v6.2c0,5.9,4.8,10.7,10.7,10.7h30.8c2.7,0,5-2.2,5-5v-30v-7.9
		V42.6V34V5C290.9,2.2,288.7,0,285.9,0z M36.5,119.7H9.9v-25v-6.2V41.7V34V9.9h26.6V119.7z M81,127.3c-1.3,1.5-3.1,2.5-5.1,2.7
		c-0.2,0-0.5,0-0.7,0c-1.7,0-3.4-0.6-4.7-1.7c-1.5-1.3-2.5-3.1-2.7-5.1c-0.2-2,0.4-3.9,1.7-5.5l4.6-5.6c1.3-1.5,3.1-2.5,5.1-2.7
		c2-0.2,4,0.4,5.5,1.7c3.2,2.6,3.6,7.4,1,10.5L81,127.3z M100.2,143.2c-1.3,1.5-3.1,2.5-5.1,2.7c-0.2,0-0.5,0-0.7,0
		c-1.7,0-3.4-0.6-4.7-1.7c-1.5-1.3-2.5-3.1-2.7-5.1c-0.2-2,0.4-3.9,1.7-5.5l4.6-5.6c1.3-1.5,3.1-2.5,5.1-2.7c2-0.2,4,0.4,5.5,1.7
		c1.5,1.3,2.5,3.1,2.7,5.1c0.2,2-0.4,3.9-1.7,5.5L100.2,143.2z M119.4,159c-1.3,1.5-3.1,2.5-5.1,2.7c-0.2,0-0.5,0-0.7,0
		c-1.7,0-3.4-0.6-4.7-1.7c-1.5-1.3-2.5-3.1-2.7-5.1c-0.2-2,0.4-3.9,1.7-5.5l4.6-5.6c1.4-1.7,3.5-2.7,5.8-2.7c1.7,0,3.4,0.6,4.8,1.7
		c1.5,1.3,2.5,3.1,2.7,5.1c0.2,2-0.4,3.9-1.7,5.5L119.4,159z M143.3,169.2l-4.6,5.6c-1.3,1.5-3.1,2.5-5.1,2.7c-0.2,0-0.5,0-0.7,0
		c-1.7,0-3.4-0.6-4.7-1.7c-1.5-1.3-2.5-3.1-2.7-5.1c-0.2-2,0.4-3.9,1.7-5.5l4.6-5.6c1.3-1.5,3.1-2.5,5.1-2.7c2-0.2,3.9,0.4,5.5,1.7
		c1.5,1.3,2.5,3.1,2.7,5.1S144.6,167.7,143.3,169.2z M231,137.7c0,2.2-0.8,4.3-2.3,5.9c-3.2,3.3-8.4,3.3-11.7,0.2l-37.7-36.6
		c-1-0.9-2.2-1.4-3.5-1.4c-1.3,0-2.6,0.6-3.5,1.5c-0.9,1-1.4,2.2-1.4,3.5s0.6,2.6,1.5,3.5l29.6,28.8c3.3,3.2,3.3,8.4,0.2,11.7
		s-8.4,3.3-11.7,0.2l-44.1-42.8c-0.9-0.9-2.2-1.4-3.5-1.4c0,0,0,0-0.1,0c-1.3,0-2.6,0.6-3.5,1.5c-1.9,2-1.9,5.1,0.1,7l29.6,28.8
		c3.3,3.2,3.3,8.4,0.2,11.7c-1.5,1.6-3.6,2.5-5.8,2.5c0,0-0.1,0-0.1,0c-2.1,0-4.2-0.8-5.7-2.3l-8.3-8.1c-0.2-0.2-0.3-0.3-0.5-0.4
		l-0.3-0.3c-3.4-2.8-7.8-4.2-12.2-3.9l-0.7,0l-0.1-0.7c-0.6-4.4-2.8-8.4-6.2-11.3c-3.4-2.8-7.8-4.2-12.2-3.9l-0.7,0l-0.1-0.7
		c-0.6-4.4-2.8-8.4-6.2-11.3c-3.4-2.8-7.8-4.2-12.2-3.9l-0.7,0l-0.1-0.7c-0.6-4.4-2.8-8.4-6.2-11.3c-3.6-3-8.1-4.3-12.7-3.9
		c-4.6,0.4-8.8,2.7-11.8,6.3l-4.6,5.6c-0.4,0.4-0.7,0.9-1,1.4l-0.4,0.6l-0.6-0.4c-3.7-2.6-8.1-4.4-12.6-5.2l-0.6-0.1V21h22.4
		c0.3,0,0.6,0,0.9-0.1l46.7-9.1c8-1.6,16-1.7,24-0.5l2.5,0.4l-2.3,1c-5.9,2.7-11.2,6.3-15.9,10.9L81.6,66.4
		c-7.6,7.5-7.7,19.8-0.3,27.4c3.7,3.8,8.8,5.9,14,5.9c3.3,0,6.7-0.9,9.6-2.5l45.5-25.7h16.1l62,60.4
		C230.1,133.4,230.9,135.5,231,137.7z M244.4,101.5l-21.2,11.4l-42.6-41.5h5.9c2.7,0,5-2.2,5-5s-2.2-5-5-5H149
		c-0.9,0-1.7,0.2-2.4,0.6L100,88.5c-3.8,2.1-8.6,1.5-11.6-1.7c-3.6-3.7-3.6-9.8,0.1-13.4l43.2-42.8c8.3-8.2,19.4-12.8,31.1-12.8
		h81.6V101.5z M281,119.7h-26.6V9.9H281v32.6c0,0,0,0,0,0v44.2c0,0,0,0,0,0V119.7z"/>
</g>
</svg>
