<?xml version="1.0" encoding="utf-8"?>
<!-- Generator: Adobe Illustrator 22.0.1, SVG Export Plug-In . SVG Version: 6.00 Build 0)  -->
<svg version="1.1" id="Layer_1" xmlns="http://www.w3.org/2000/svg" xmlns:xlink="http://www.w3.org/1999/xlink" x="0px" y="0px"
	 viewBox="0 0 237 286.3" style="enable-background:new 0 0 237 286.3;" xml:space="preserve">
<style type="text/css">
	.st0{fill:#020202;}
</style>
<g>
	<g>
		<g>
			<path class="st0" d="M235.9,248.7l-30-38.6c9.7-2.9,18.1-9.1,23.8-17.6c7.1-12.2,3.9-27.2,0.8-41.6c-1.9-7.4-3-15-3.3-22.6
				c0.3-7.6,1.5-15.2,3.3-22.6c3.1-14.4,6.3-29.3-0.8-41.5c-7.3-12.7-22.1-17.3-36.3-21.9c-7.1-2-14-4.7-20.5-8
				c-5.9-3.9-11.4-8.3-16.4-13.3C145.8,11.1,133.8,0,118.5,0S91.2,11.1,80.6,20.9c-5,5-10.5,9.5-16.4,13.3c-6.5,3.4-13.4,6.1-20.5,8
				c-14.3,4.5-29,9.2-36.3,21.9c-7.1,12.2-3.9,27.2-0.8,41.6c1.9,7.4,3,15,3.3,22.6C9.5,136,8.4,143.6,6.5,151
				c-3.1,14.4-6.3,29.3,0.8,41.5c5.6,8.5,14,14.7,23.8,17.6L1,248.7c-1.7,2.2-1.3,5.3,0.9,6.9c1,0.8,2.3,1.2,3.6,1l35.3-4.4
				l8.7,30.5c0.5,1.8,2,3.1,3.8,3.5c0.3,0.1,0.6,0.1,0.9,0.1c1.5,0,3-0.7,3.9-1.9l31.5-40.5c7.8,7.6,17.9,12.1,28.8,12.8
				c10.8-0.7,21-5.3,28.8-12.8l31.5,40.5c0.9,1.2,2.4,1.9,3.9,1.9c0.3,0,0.6,0,0.9-0.1c1.8-0.4,3.3-1.7,3.8-3.5l8.7-30.5l35.3,4.4
				c2.7,0.3,5.2-1.6,5.5-4.3C237.1,251.1,236.7,249.8,235.9,248.7z M56.4,270.7l-7.2-25.2c-0.7-2.3-2.9-3.8-5.4-3.5l-27.6,3.5
				L41,213.5l2.7,0.9c7.1,2,14,4.6,20.5,8c5.9,3.9,11.4,8.3,16.4,13.3l1.7,1.6L56.4,270.7z M118.5,246.8c-11.4,0-21-8.9-31.2-18.3
				c-5.5-5.5-11.6-10.4-18.2-14.6c-7.2-3.7-14.7-6.7-22.5-8.9c-13-4.1-25.4-8.1-30.8-17.4c-5.2-8.9-2.5-21.4,0.3-34.6
				c2-8.1,3.2-16.4,3.6-24.7c-0.3-8.3-1.5-16.6-3.6-24.7c-2.8-13.2-5.5-25.6-0.3-34.6c5.4-9.3,17.7-13.3,30.8-17.4
				c7.8-2.2,15.3-5.1,22.5-8.9c6.6-4.2,12.7-9.1,18.2-14.6c10.2-9.4,19.8-18.3,31.2-18.3s21,8.9,31.2,18.3
				c5.5,5.5,11.6,10.4,18.2,14.6c7.2,3.7,14.7,6.7,22.5,8.9c13,4.1,25.4,8.1,30.8,17.4c5.2,8.9,2.5,21.4-0.3,34.6
				c-2,8.1-3.2,16.4-3.6,24.7c0.3,8.3,1.5,16.6,3.6,24.7c2.8,13.2,5.5,25.6,0.3,34.6c-5.4,9.3-17.7,13.3-30.8,17.4
				c-7.8,2.2-15.3,5.1-22.5,8.9c-6.6,4.2-12.7,9.1-18.2,14.6C139.5,237.9,129.9,246.8,118.5,246.8z M193.2,241.9
				c-2.4-0.3-4.7,1.2-5.4,3.5l-7.2,25.2l-25.9-33.3l1.7-1.6c5-5,10.5-9.5,16.4-13.3c6.5-3.4,13.4-6.1,20.5-8l2.7-0.9l24.8,31.9
				L193.2,241.9z"/>
		</g>
	</g>
	<g>
		<g>
			<path class="st0" d="M118.5,39.5c-49.1,0-88.9,39.8-88.9,88.9s39.8,88.9,88.9,88.9s88.9-39.8,88.9-88.9
				C207.3,79.3,167.5,39.5,118.5,39.5z M118.5,207.3c-43.6,0-79-35.4-79-79s35.4-79,79-79s79,35.4,79,79
				C197.4,171.9,162.1,207.3,118.5,207.3z"/>
		</g>
	</g>
	<g>
		<g>
			<path class="st0" d="M175.4,107.7c-1.9-2.6-4.8-4.1-8-4.1h-30.2l-9.4-28.8c-1.7-5.2-7.3-8-12.5-6.3c-3,1-5.3,3.3-6.3,6.3
				l-9.4,28.8H69.5c-5.5,0-9.9,4.4-9.9,9.9c0,3.2,1.5,6.1,4.1,8l24.5,17.8l-9.3,28.8c-1.7,5.2,1.2,10.8,6.3,12.4
				c3,1,6.3,0.5,8.9-1.4l24.5-17.8l24.5,17.8c3.4,2.6,8.2,2.6,11.6,0c3.5-2.5,5-7,3.6-11l-9.3-28.8l24.5-17.8
				C177.7,118.3,178.6,112.1,175.4,107.7z M140.1,133.4c-1.7,1.3-2.5,3.5-1.8,5.5l10.5,32.2l-27.4-19.9c-1.7-1.3-4.1-1.3-5.8,0
				l-27.4,19.9l10.5-32.2c0.7-2-0.1-4.3-1.8-5.5l-27.4-19.9h33.8c2.1,0,4-1.4,4.7-3.4L118.5,78l10.5,32.2c0.7,2,2.6,3.4,4.7,3.4
				l33.8,0L140.1,133.4z"/>
		</g>
	</g>
</g>
</svg>
