<?xml version="1.0" standalone="no"?>
<!DOCTYPE svg PUBLIC "-//W3C//DTD SVG 1.1//EN" "http://www.w3.org/Graphics/SVG/1.1/DTD/svg11.dtd" >
<svg xmlns="http://www.w3.org/2000/svg">
<metadata>Generated by IcoMoon</metadata>
<defs>
<font id="adicon" horiz-adv-x="1024">
<font-face units-per-em="1024" ascent="960" descent="-64" />
<missing-glyph horiz-adv-x="1024" />
<glyph unicode="&#x20;" horiz-adv-x="512" d="" />
<glyph unicode="&#xe900;" glyph-name="cal" horiz-adv-x="933" d="M869.271 868.894h-12.8v13.553c0 42.918-34.635 77.553-77.553 77.553s-77.553-34.635-77.553-77.553v-13.553h-51.2v13.553c0 32-19.576 59.482-47.059 71.153 0 0-0.376 0-0.376 0.376-4.518 1.882-9.412 3.388-14.306 4.518 0 0 0 0 0 0-2.259 0.376-4.518 0.753-6.776 1.129-0.376 0-0.753 0-1.129 0-2.635 0.376-5.271 0.376-7.906 0.376v0 0c-42.918 0-77.553-34.635-77.553-77.553v-13.553h-51.2v13.553c0 42.918-34.635 77.553-77.553 77.553s-77.553-34.635-77.553-77.553v-13.553h-51.2v13.553c0 42.918-35.012 77.553-77.553 77.553s-77.929-34.635-77.929-77.553v-13.553h-18.447c-35.012 0-63.624-28.612-63.624-63.624v-670.118c0 0 0 0 0 0v-13.929c0 0 0 0 0 0v-50.447c0 0 0 0 0 0v-70.776c0-35.012 28.612-63.624 63.624-63.624h805.647c35.012 0 63.624 28.612 63.624 63.624v805.271c0 35.012-28.612 63.624-63.624 63.624zM738.635 882.447c0 22.212 18.071 40.282 40.282 40.282s40.282-18.071 40.282-40.282v-62.871c0-22.212-18.071-40.282-40.282-40.282s-40.282 18.071-40.282 40.282v62.871zM532.329 879.812v2.635c0 21.835 17.318 39.529 38.776 40.282 0.376 0 0.753 0 1.506 0 22.212 0 40.282-18.071 40.282-40.282v-62.871c0-22.212-18.071-40.282-40.282-40.282s-40.282 18.071-40.282 40.282v60.235zM326.024 882.447c0 22.212 18.071 40.282 40.282 40.282s40.282-18.071 40.282-40.282v-62.494c0-22.212-18.071-40.282-40.282-40.282s-40.282 18.071-40.282 40.282v62.494zM160 922.729c22.212 0 40.282-18.071 40.282-40.282v-62.494c0-22.212-18.071-40.282-40.282-40.282-18.071 0-33.129 11.671-38.4 28.235 0 0 0 0.376 0 0.376-0.376 1.129-0.376 1.882-0.753 3.012 0 0.376-0.376 1.129-0.376 1.506 0 0.753-0.376 1.882-0.376 2.635 0 1.129 0 2.259-0.376 3.388 0 0.376 0 0.753 0 1.506v62.118c-0.376 22.212 18.071 40.282 40.282 40.282zM895.624-0.376c0-14.682-11.671-26.353-26.353-26.353h-805.647c-14.682 0-26.353 11.671-26.353 26.353v185.224c0 0 0 0 0 0v620.424c0 14.682 11.671 26.353 26.353 26.353h18.447v-12.047c0-2.635 0-4.894 0.376-7.153 0-0.376 0-0.376 0-0.753 1.129-10.541 4.518-20.706 9.412-30.118 0.376-0.753 1.129-1.506 1.506-2.259 13.176-21.082 36.141-35.765 62.494-36.894 1.129-0.376 2.259-0.376 3.388-0.376 42.918 0 77.553 34.635 77.553 77.553v0c0 0 0 0 0 0v12.047h51.2v-12.047c0-42.918 34.635-77.553 77.553-77.553s77.553 34.635 77.553 77.553v12.047h51.2v-12.047c0-42.918 34.635-77.553 77.553-77.553s77.553 34.635 77.553 77.553v12.047h51.2v-12.047c0-42.918 34.635-77.553 77.553-77.553s77.553 34.635 77.553 77.553v12.047h12.8c14.682 0 26.353-11.671 26.353-26.353v-78.682c0 0 0 0 0 0v-51.576c0 0 0 0 0 0v-675.388zM774.024 670.118h-499.953c0 0 0 0 0 0h-114.824c-31.624 0-57.6-25.976-57.6-57.6v-444.988c0-31.624 25.976-57.6 57.6-57.6h614.776c31.624 0 57.6 25.976 57.6 57.6v444.988c0 31.624-25.976 57.6-57.6 57.6zM794.353 167.529c0-11.294-9.035-20.329-20.329-20.329h-614.776c-11.294 0-20.329 9.035-20.329 20.329v444.988c0 5.271 2.259 10.541 6.024 14.306s9.035 6.024 14.306 6.024h54.588c0 0 0 0 0 0h560.188c11.294 0 20.329-9.035 20.329-20.329v-444.988zM341.835 440.847h-45.176c-6.4 0-10.918 1.506-13.929 4.518s-4.518 7.529-4.518 13.929c0 4.518 1.129 8.282 3.012 11.294s4.518 4.894 7.906 6.024c1.129 0.376 6.024 0.753 14.306 1.882s15.812 2.635 22.212 4.518c6.776 2.259 13.929 8.659 20.706 19.576 0.753 1.129 1.129 2.259 1.506 2.635 0.376 0.753 1.129 1.506 1.882 3.388 5.647 9.412 12.8 13.929 21.082 13.929 7.153 0 12.424-1.882 16.188-5.647s5.647-9.412 5.647-16.565v-212.329c0-9.035-2.259-15.435-6.4-19.953s-10.541-6.776-18.824-6.776c-8.282 0-14.682 2.259-18.824 6.776s-6.4 11.294-6.4 19.953v152.847zM530.071 515.388h90.729c7.529 0 13.553-1.882 17.318-5.647s6.024-9.035 6.024-16.188c0-7.153-1.882-12.8-6.024-16.188-3.765-3.765-9.788-5.647-17.318-5.647h-89.224l-6.776-51.576c5.647 4.518 12.047 7.906 19.576 10.165 7.153 2.259 15.435 3.388 24.471 3.388 25.6 0 46.306-7.906 62.118-23.341s23.718-36.141 23.718-61.365c0-27.859-8.659-49.694-25.976-66.259s-40.659-24.847-70.024-24.847c-22.588 0-42.165 5.271-57.976 15.812s-23.718 22.965-23.718 36.894c0 7.153 2.259 13.553 6.776 18.071 4.518 4.894 10.165 7.153 16.941 7.153 4.518 0 8.659-1.129 12.047-3.388s7.529-6.776 12.047-13.929c4.894-7.529 9.788-12.8 14.682-15.435s11.294-4.141 19.576-4.141c13.929 0 24.471 4.141 32 12.424s10.918 19.953 10.918 35.012c0 14.306-3.765 25.6-11.294 33.882s-18.071 12.424-31.247 12.424c-9.035 0-19.2-3.012-30.871-9.035s-19.576-9.035-24.094-9.035c-7.153 0-12.8 2.259-16.565 6.4s-5.647 10.918-5.647 19.576c0 2.259 0 3.765 0 5.271s0 2.635 0.376 3.765l9.412 75.671c1.506 12.8 4.894 21.082 9.412 24.847 4.518 3.388 13.929 5.271 28.612 5.271z" />
<glyph unicode="&#xe901;" glyph-name="arrow1" horiz-adv-x="922" d="M858.112 433.664c-10.24 8.192-24.576 14.336-38.912 14.336s-30.72-6.144-40.96-18.432l-311.296-329.728-325.632 331.776c-10.24 10.24-24.576 16.384-38.912 16.384s-28.672-6.144-38.912-16.384c-10.24-10.24-16.384-24.576-16.384-40.96 0-14.336 6.144-28.672 16.384-38.912l364.544-372.736c10.24-10.24 24.576-16.384 40.96-16.384s30.72 6.144 40.96 18.432l350.208 372.736c20.48 22.528 20.48 57.344-2.048 79.872zM858.112 916.992c-10.24 10.24-24.576 14.336-38.912 14.336s-30.72-6.144-40.96-18.432l-311.296-327.68-325.632 329.728c-10.24 12.288-24.576 18.432-38.912 18.432s-28.672-6.144-38.912-16.384c-10.24-10.24-16.384-24.576-16.384-40.96 0-14.336 4.096-28.672 14.336-38.912l364.544-372.736c10.24-10.24 24.576-16.384 40.96-16.384s30.72 6.144 40.96 18.432l352.256 372.736c20.48 22.528 20.48 57.344-2.048 77.824z" />
<glyph unicode="&#xe902;" glyph-name="arrow2" horiz-adv-x="922" d="M858.112 433.664c-10.24 8.192-24.576 14.336-38.912 14.336s-30.72-6.144-40.96-18.432l-311.296-329.728-325.632 331.776c-10.24 10.24-24.576 16.384-38.912 16.384s-28.672-6.144-38.912-16.384c-10.24-10.24-16.384-24.576-16.384-40.96 0-14.336 6.144-28.672 16.384-38.912l364.544-372.736c10.24-10.24 24.576-16.384 40.96-16.384s30.72 6.144 40.96 18.432l350.208 372.736c20.48 22.528 20.48 57.344-2.048 79.872zM858.112 916.992c-10.24 10.24-24.576 14.336-38.912 14.336s-30.72-6.144-40.96-18.432l-311.296-327.68-325.632 329.728c-10.24 12.288-24.576 18.432-38.912 18.432s-28.672-6.144-38.912-16.384c-10.24-10.24-16.384-24.576-16.384-40.96 0-14.336 4.096-28.672 14.336-38.912l364.544-372.736c10.24-10.24 24.576-16.384 40.96-16.384s30.72 6.144 40.96 18.432l352.256 372.736c20.48 22.528 20.48 57.344-2.048 77.824z" />
<glyph unicode="&#xe903;" glyph-name="arrow3" horiz-adv-x="922" d="M880.64 431.616c-10.24 10.24-24.576 16.384-40.96 16.384s-32.768-6.144-43.008-18.432l-329.728-350.208-342.016 350.208c-12.288 12.288-26.624 18.432-43.008 18.432s-30.72-6.144-40.96-16.384c-12.288-10.24-18.432-26.624-18.432-43.008s6.144-30.72 16.384-40.96l385.024-393.216c10.24-10.24 26.624-18.432 43.008-18.432s32.768 6.144 43.008 18.432l372.736 393.216c22.528 24.576 20.48 61.44-2.048 83.968zM880.64 943.616c-12.288 10.24-26.624 16.384-40.96 16.384-16.384 0-32.768-6.144-43.008-18.432l-329.728-350.208-342.016 350.208c-12.288 12.288-26.624 18.432-43.008 18.432s-30.72-6.144-40.96-16.384c-12.288-12.288-18.432-26.624-18.432-43.008s6.144-30.72 16.384-40.96l385.024-393.216c10.24-10.24 26.624-18.432 43.008-18.432s32.768 6.144 43.008 18.432l372.736 393.216c22.528 24.576 20.48 61.44-2.048 83.968z" />
<glyph unicode="&#xe904;" horiz-adv-x="1404" d="M1001.983 266.636c56.91-26.309 100.198-81.913 106.356-119.23h143.487c-2.239 46.087-21.831 95.347-56.163 140.501-35.079 46.087-82.472 84.525-133.411 108.222-0.187 1.12-0.56 3.545-0.187 7.464 2.052 20.152 19.405 45.528 42.169 51.125 3.172 0.746 6.531 1.12 9.889 1.12 35.638 0 83.032-40.676 127.067-108.595 13.248-20.525 35.638-32.653 60.082-32.653 13.808 0 27.055 3.918 38.624 11.382 33.026 21.458 42.729 65.679 21.271 98.706-92.735 143.86-185.656 173.901-247.044 173.901-14.741 0-29.294-1.679-43.475-5.038-89.749-21.644-143.673-104.863-150.764-175.953-6.531-66.426 24.816-124.455 82.099-150.95z" />
<glyph unicode="&#xe905;" horiz-adv-x="1404" d="M944.14 147.405c-25.19 26.869-39.557 54.857-40.303 55.977-12.128 24.443-36.758 39.743-64 39.743-10.822 0-21.644-2.426-31.347-7.277-17.166-8.397-30.041-22.95-36.198-41.050-5.411-15.673-5.224-32.28 0.373-47.394h171.475z" />
<glyph unicode="&#xe906;" horiz-adv-x="1404" d="M808.117 147.405c-2.239 4.105-3.359 6.531-3.732 6.904-9.516 19.592-1.493 43.289 18.099 52.805 5.598 2.799 11.569 4.105 17.353 4.105 14.554 0 28.548-8.023 35.452-22.017 0.373-0.56 9.703-19.219 27.055-41.796h89.749c-4.665 3.359-9.329 7.277-14.181 11.569-27.615 25.376-44.408 56.91-45.528 58.962-8.77 17.353-22.017 31.907-38.624 42.169-16.233 9.889-34.892 15.114-53.924 15.114-15.673 0-31.347-3.732-45.528-10.636-24.816-12.128-43.475-33.213-52.431-59.335-6.531-18.845-7.277-38.81-2.612-57.843h68.851z" />
<glyph unicode="&#xe907;" horiz-adv-x="1404" d="M1388.035 442.216c-100.571 155.802-204.501 188.641-273.913 188.641-17.353 0-34.332-2.052-50.939-5.971-48.886-11.942-91.988-39.93-124.455-80.98-28.362-36.012-46.461-79.673-50.566-122.962-8.023-80.606 30.601-150.764 100.571-183.23 24.443-11.382 48.7-30.974 66.426-53.924 12.128-15.487 17.913-28.175 20.338-36.198h65.12c-5.784 51.872-60.641 118.297-125.015 148.152-45.155 20.898-69.038 65.493-63.813 119.044 5.971 59.708 51.312 129.866 126.507 147.965 10.076 2.426 22.204 4.292 35.825 4.292 54.857 0 135.837-28.735 220.175-159.347 11.755-18.286 6.531-42.729-11.755-54.484-6.531-4.292-13.994-6.344-21.271-6.344-12.875 0-25.563 6.344-33.213 18.099-51.312 79.487-106.356 123.335-153.936 123.335-5.971 0-11.755-0.746-17.353-2.052-37.691-9.143-63.254-47.394-66.426-79.114-1.866-19.778 4.292-33.026 18.472-39.557 46.461-21.458 89.563-56.536 121.469-98.519 30.041-39.557 47.207-81.913 49.633-121.283h63.813c-2.239 53.178-24.070 109.155-62.694 159.907-32.653 42.915-75.195 79.86-121.843 105.796 3.545 5.038 8.21 9.516 12.315 10.449 0.746 0.187 1.493 0.187 2.239 0.187 13.621 0 52.058-19.592 100.198-94.041 19.219-29.668 51.685-47.394 86.95-47.394 19.965 0 39.37 5.784 55.977 16.606 48.327 30.787 62.134 94.974 31.16 142.927z" />
<glyph unicode="&#xe908;" horiz-adv-x="1404" d="M403.405 213.458l-19.965 7.65-199.837 89.749-53.924 112.7 31.907 141.248 4.292 186.776 42.729 162.892 153.936-129.866 132.292-28.175 230.997-9.889 168.49 165.504 42.915-25.936 35.452-180.058 26.122-257.493-3.732-104.863-242.192-149.085-94.787-17.166z" />
<glyph unicode="&#xe909;" horiz-adv-x="1404" d="M505.843 338.286c0 0 15.86-49.073 58.402-53.738 42.356-4.665 62.134 53.924 62.134 53.924l-62.134 41.983-58.402-42.169z" />
<glyph unicode="&#xe90a;" horiz-adv-x="1404" d="M593.539 326.531c0-10.449-12.128-18.845-27.242-18.845s-27.242 8.397-27.242 18.845c0 10.449 12.128 18.845 27.242 18.845s27.242-8.397 27.242-18.845z" />
<glyph unicode="&#xe90b;" horiz-adv-x="1404" d="M769.493 147.405l-48.14 186.216c-2.239 58.216-47.394 105.050-102.624 105.050h-114.939c-55.23 0-100.385-46.647-102.624-104.863l-49.073-186.216h417.399z" />
<glyph unicode="&#xe90c;" horiz-adv-x="1404" d="M1005.341 558.087c29.854 249.283-52.991 380.828-56.536 386.426-8.956 13.994-26.496 19.405-41.796 12.875-80.793-33.773-176.7-144.793-210.286-186.216-52.805 7.837-130.052 8.956-131.172 8.956-8.397-0.187-79.86-1.866-130.052-9.329-33.959 41.236-130.052 152.257-210.845 185.656-15.487 6.344-33.026 0.933-41.796-13.061-3.732-5.784-85.831-138.076-55.417-386.612-7.277-27.429-27.429-109.901-24.070-170.542 5.598-100.012 265.703-233.796 464.606-238.647 197.598 5.411 456.77 140.128 461.994 240.14 3.172 60.455-17.353 142.927-24.63 170.356zM195.732 558.647c-21.271 164.012 10.822 272.233 30.787 320.373 77.621-49.633 166.997-164.385 167.93-165.691 8.21-10.449 21.831-15.3 34.706-12.315 38.437 8.77 120.35 11.195 136.583 11.755 9.889-0.187 97.026-2.052 137.516-11.195 13.061-2.985 26.496 1.866 34.706 12.315 3.918 5.038 91.429 117.178 167.37 166.064 20.152-48.14 52.618-156.362 31.907-320.373-0.56-4.478-0.187-8.956 1.12-13.434 0.187-0.933 27.055-95.907 24.070-155.242-2.052-37.131-195.732-170.729-394.262-176.14-199.65 4.851-394.449 137.889-396.688 175.020-3.359 59.149 23.324 154.309 23.51 155.429 0.933 4.292 1.306 8.77 0.746 13.434z" />
<glyph unicode="&#xe90d;" horiz-adv-x="1404" d="M430.834 500.618c0-25.19-20.525-45.528-46.087-45.528s-46.087 20.338-46.274 45.341c0 25.19 20.525 45.528 46.087 45.528 25.563 0.187 46.274-20.152 46.274-45.341z" />
<glyph unicode="&#xe90e;" horiz-adv-x="1404" d="M794.122 501.178c0-25.19-20.525-45.528-46.087-45.528s-46.087 20.338-46.274 45.341c0 25.19 20.525 45.528 46.087 45.528 25.563 0.187 46.274-20.152 46.274-45.341z" />
<glyph unicode="&#xe90f;" horiz-adv-x="1404" d="M506.402 338.286c-48.886 0-70.531 43.102-75.195 65.866-1.679 8.023 3.732 16.047 11.942 17.726s16.233-3.545 17.913-11.755c0.373-1.866 9.516-41.983 45.341-41.796 36.012 0 44.968 40.303 45.341 41.983 1.679 8.023 9.703 13.248 17.913 11.755 8.21-1.679 13.621-9.516 11.942-17.539-4.665-23.137-26.309-66.239-75.195-66.239z" />
<glyph unicode="&#xe910;" horiz-adv-x="1404" d="M626.939 338.472c-48.886 0-70.531 43.102-75.195 65.866-1.679 8.023 3.732 16.047 11.942 17.726s16.233-3.545 17.913-11.755c0.373-1.866 9.516-41.983 45.341-41.796 36.012 0 44.968 40.303 45.341 41.983 1.679 8.023 9.703 13.248 17.913 11.755 8.21-1.679 13.621-9.516 11.942-17.539-4.851-23.137-26.309-66.239-75.195-66.239z" />
<glyph unicode="&#xe911;" horiz-adv-x="1404" d="M580.665 436.991l-27.988 0.187c-15.86 0.187-25.936-17.166-17.913-30.974l13.808-23.883c7.837-13.621 27.429-13.808 35.452-0.187l14.181 23.697c8.21 13.808-1.493 31.16-17.539 31.16z" />
<glyph unicode="&#xe912;" horiz-adv-x="1404" d="M1114.869 535.137l-244.431-32.093c-8.583-1.12-14.741-8.956-13.621-17.539 1.12-7.837 7.837-13.621 15.673-13.434 0.746 0 1.306 0 2.052 0.187l244.431 32.093c8.583 1.12 14.741 8.956 13.621 17.539-1.12 8.397-8.956 14.367-17.726 13.248z" />
<glyph unicode="&#xe913;" horiz-adv-x="1404" d="M1087.627 381.761l-205.808 51.312c-8.583 2.052-17.166-2.985-19.219-11.195-2.239-8.397 2.985-16.793 11.382-18.845l205.808-51.312c1.306-0.373 2.612-0.56 3.918-0.56 7.090 0 13.434 4.665 15.3 11.755 2.239 8.21-2.799 16.606-11.382 18.845z" />
<glyph unicode="&#xe914;" horiz-adv-x="1404" d="M262.531 502.111l-244.618 31.347c-8.583 1.12-16.606-4.851-17.726-13.434s5.038-16.42 13.621-17.539l244.618-31.347c0.746 0 1.306-0.187 2.052-0.187 7.837 0 14.554 5.784 15.673 13.621 1.12 8.583-5.038 16.42-13.621 17.539z" />
<glyph unicode="&#xe915;" horiz-adv-x="1404" d="M251.335 432.14l-205.808-52.058c-8.397-2.052-13.621-10.636-11.382-19.032 1.866-7.090 8.21-11.755 15.3-11.755 1.306 0 2.612 0.187 3.918 0.56l205.621 52.058c8.397 2.052 13.621 10.636 11.382 19.032-2.052 8.21-10.636 13.248-19.032 11.195z" />
<glyph unicode="&#xe916;" horiz-adv-x="1404" d="M273.353-36.012c-64.933 0-117.738 46.087-117.738 102.81v71.837c0 56.723 52.805 102.81 117.738 102.81h6.344c64.933 0 117.738-46.087 117.738-102.81v-71.837c0-56.723-52.805-102.81-117.738-102.81h-6.344z" />
<glyph unicode="&#xe917;" horiz-adv-x="1404" d="M279.697 213.458c49.633 0 89.749-33.586 89.749-74.822v-71.837c0-41.423-40.117-74.822-89.749-74.822h-6.344c-49.633 0-89.749 33.586-89.749 74.822v71.837c0 41.423 40.117 74.822 89.749 74.822h6.344zM279.697 269.434h-6.344c-37.131 0-72.397-12.315-99.265-34.892-29.481-24.63-46.461-59.522-46.461-95.907v-71.837c0-36.385 16.98-71.277 46.461-95.907 27.055-22.577 62.321-34.892 99.265-34.892h6.344c37.131 0 72.397 12.315 99.265 34.892 29.481 24.63 46.461 59.522 46.461 95.907v71.837c0 36.385-16.98 71.277-46.461 95.907-26.869 22.577-62.134 34.892-99.265 34.892v0z" />
<glyph unicode="&#xe918;" horiz-adv-x="1404" d="M853.085-36.012c-64.933 0-117.738 46.087-117.738 102.81v71.837c0 56.723 52.805 102.81 117.738 102.81h6.344c64.933 0 117.738-46.087 117.738-102.81v-71.837c0-56.723-52.805-102.81-117.738-102.81h-6.344z" />
<glyph unicode="&#xe919;" horiz-adv-x="1404" d="M859.429 213.458c49.633 0 89.749-33.586 89.749-74.822v-71.837c0-41.423-40.117-74.822-89.749-74.822h-6.344c-49.633 0-89.749 33.586-89.749 74.822v71.837c0 41.423 40.117 74.822 89.749 74.822h6.344zM859.429 269.434h-6.344c-37.131 0-72.397-12.315-99.265-34.892-29.481-24.63-46.461-59.522-46.461-95.907v-71.837c0-36.385 16.98-71.277 46.461-95.907 27.055-22.577 62.321-34.892 99.265-34.892h6.344c37.131 0 72.397 12.315 99.265 34.892 29.481 24.63 46.461 59.522 46.461 95.907v71.837c0 36.385-16.98 71.277-46.461 95.907-27.055 22.577-62.321 34.892-99.265 34.892v0z" />
<glyph unicode="&#xe91a;" horiz-adv-x="1404" d="M835.732-10.822c0 0-25.19 27.988-4.292 70.717 0 0 1.866 18.472-15.3 4.665-25.749-20.711-2.985-79.86-2.985-79.86l22.577 4.478z" />
<glyph unicode="&#xe91b;" horiz-adv-x="1404" d="M893.388-11.569c0 0-25.19 27.988-4.292 70.717 0 0 1.866 18.472-15.487 4.665-25.749-20.711-2.985-79.86-2.985-79.86l22.764 4.478z" />
<glyph unicode="&#xe91c;" horiz-adv-x="1404" d="M253.574-10.822c0 0-25.19 27.988-4.292 70.717 0 0 1.866 18.472-15.3 4.665-25.749-20.711-2.985-79.86-2.985-79.86l22.577 4.478z" />
<glyph unicode="&#xe91d;" horiz-adv-x="1404" d="M311.23-11.569c0 0-25.19 27.988-4.292 70.717 0 0 1.866 18.472-15.487 4.665-25.749-20.711-2.985-79.86-2.985-79.86l22.764 4.478z" />
<glyph unicode="&#xe91e;" d="M1022.905 448.548c0-282.467-228.985-511.452-511.452-511.452s-511.452 228.985-511.452 511.452c0 282.467 228.985 511.452 511.452 511.452s511.452-228.985 511.452-511.452z" />
<glyph unicode="&#xe91f;" d="M599.067 759.581l151.136-151.136v-432.599c0-22.999-18.618-42.712-42.712-42.712h-385.506c-22.999 0-42.712 18.618-42.712 42.712v541.022c0 22.999 18.618 42.712 42.712 42.712h277.082zM599.067 816.53h-277.082c-54.759 0-99.662-44.903-99.662-99.662v-541.022c0-54.759 44.903-99.662 99.662-99.662h385.506c54.759 0 99.662 44.903 99.662 99.662v432.599c0 15.333-5.476 29.57-16.428 40.522l-151.136 151.136c-10.952 9.857-25.189 16.428-40.522 16.428v0z" />
<glyph unicode="&#xe920;" d="M599.067 759.581l151.136-151.136h-108.424c-22.999 0-42.712 18.618-42.712 42.712v108.424zM599.067 816.53c-7.666 0-14.237-1.095-21.904-4.381-20.809-8.761-35.046-29.57-35.046-52.569v-108.424c0-54.759 44.903-99.662 99.662-99.662h108.424c22.999 0 43.807 14.237 52.569 35.046s4.381 45.998-12.047 62.426l-151.136 151.136c-10.952 10.952-26.284 16.428-40.522 16.428v0z" />
<glyph unicode="&#xe921;" d="M481.882 577.78h-147.85c-15.333 0-28.475 13.142-28.475 28.475s13.142 28.475 28.475 28.475h147.85c15.333 0 28.475-13.142 28.475-28.475s-13.142-28.475-28.475-28.475z" />
<glyph unicode="&#xe922;" d="M538.832 486.879h-204.8c-15.333 0-28.475 13.142-28.475 28.475s13.142 28.475 28.475 28.475h204.8c15.333 0 28.475-13.142 28.475-28.475 0-16.428-13.142-28.475-28.475-28.475z" />
<glyph unicode="&#xe923;" d="M703.11 370.789h-369.078c-15.333 0-28.475 13.142-28.475 28.475s13.142 28.475 28.475 28.475h369.078c15.333 0 28.475-13.142 28.475-28.475s-12.047-28.475-28.475-28.475z" />
<glyph unicode="&#xe924;" d="M703.11 288.65h-369.078c-15.333 0-28.475 13.142-28.475 28.475s13.142 28.475 28.475 28.475h369.078c15.333 0 28.475-13.142 28.475-28.475s-12.047-28.475-28.475-28.475z" />
<glyph unicode="&#xe925;" d="M703.11 208.702h-369.078c-15.333 0-28.475 13.142-28.475 28.475s13.142 28.475 28.475 28.475h369.078c15.333 0 28.475-13.142 28.475-28.475s-12.047-28.475-28.475-28.475z" />
<glyph unicode="&#xe926;" d="M1022.905 448.548c0-282.467-228.985-511.452-511.452-511.452s-511.452 228.985-511.452 511.452c0 282.467 228.985 511.452 511.452 511.452s511.452-228.985 511.452-511.452z" />
<glyph unicode="&#xe927;" d="M760.060 711.393c30.665 0 54.759-24.094 54.759-54.759v-274.892l-196.039-196.039h-354.841c-30.665 0-54.759 24.094-54.759 54.759v416.171c0 30.665 24.094 54.759 54.759 54.759h496.12zM760.060 768.342h-496.12c-61.33 0-111.709-50.379-111.709-111.709v-416.171c0-61.33 50.379-111.709 111.709-111.709h355.936c15.333 0 29.57 5.476 40.522 16.428l194.943 194.943c10.952 10.952 16.428 25.189 16.428 40.522v275.987c0 61.33-50.379 111.709-111.709 111.709v0z" />
<glyph unicode="&#xe928;" d="M814.819 380.646v0zM814.819 380.646l-196.039-194.943v140.184c0 30.665 24.094 54.759 54.759 54.759h141.279zM814.819 437.596v0h-140.184c-61.33 0-111.709-50.379-111.709-111.709v-140.184c0-22.999 14.237-43.807 35.046-52.569 6.571-3.286 14.237-4.381 21.904-4.381 14.237 0 29.57 5.476 40.522 16.428l193.848 194.943c10.952 9.857 16.428 24.094 16.428 40.522 1.095 31.76-24.094 56.95-55.855 56.95 0 0 0 0 0 0v0 0z" />
<glyph unicode="&#xe929;" d="M410.695 633.634l45.998-93.091 101.852-14.237-73.378-72.282 17.523-101.852-91.996 48.188-90.901-48.188 17.523 101.852-74.473 72.282 102.948 14.237z" />
<glyph unicode="&#xe92a;" d="M652.732 645.681l24.094-50.379 55.855-7.666-40.522-39.427 9.857-54.759-49.283 26.284-50.379-26.284 9.857 54.759-39.427 39.427 54.759 7.666z" />
<glyph unicode="&#xe92b;" d="M757.803 896.155c247.47-136.149 337.713-447.134 201.563-694.604s-447.134-337.713-694.604-201.563c-247.47 136.149-337.713 447.134-201.563 694.604s447.134 337.713 694.604 201.563z" />
<glyph unicode="&#xe92c;" d="M316.509 435.405c-86.52 0-157.707 70.092-157.707 157.707 0 86.52 70.092 157.707 157.707 157.707 86.52 0 157.707-70.092 157.707-157.707s-70.092-157.707-157.707-157.707zM316.509 697.155c-58.045 0-104.043-47.093-104.043-104.043 0-58.045 47.093-104.043 104.043-104.043 58.045 0 104.043 47.093 104.043 104.043 1.095 56.95-45.998 104.043-104.043 104.043z" />
<glyph unicode="&#xe92d;" d="M350.46 592.017c0-18.618-14.237-32.856-32.856-32.856s-32.856 14.237-32.856 32.856c0 18.618 14.237 32.856 32.856 32.856 17.523 1.095 32.856-14.237 32.856-32.856z" />
<glyph unicode="&#xe92e;" d="M707.491 436.501h-390.982c-14.237 0-25.189 10.952-25.189 25.189s9.857 25.189 24.094 26.284c1.095 0 66.806 5.476 91.996 51.474 16.428 31.76 18.618 63.521 5.476 94.186-9.857 21.904-25.189 37.236-28.475 40.522l-2.19 1.095c-10.952 6.571-37.236 20.809-56.95 22.999-13.142 1.095-24.094 13.142-22.999 26.284s12.047 24.094 25.189 24.094h378.935c86.52 0 156.612-70.092 156.612-156.612 1.095-85.425-68.997-155.517-155.517-155.517zM432.599 486.879h274.892c58.045 0 105.138 47.093 105.138 105.138s-47.093 105.138-105.138 105.138h-275.987c24.094-28.475 66.806-96.376 20.809-182.896-5.476-9.857-12.047-18.618-19.713-27.38z" />
<glyph unicode="&#xe92f;" d="M328.556 698.25h-10.952c-13.142 0-25.189 10.952-25.189 24.094-1.095 13.142 8.761 25.189 22.999 27.38 5.476 1.095 10.952 1.095 16.428 0 13.142-1.095 24.094-13.142 22.999-26.284-2.19-15.333-13.142-25.189-26.284-25.189z" />
<glyph unicode="&#xe930;" d="M316.509 172.56c-86.52 0-157.707 70.092-157.707 157.707 0 86.52 70.092 157.707 157.707 157.707 86.52 0 157.707-70.092 157.707-157.707 0-86.52-70.092-157.707-157.707-157.707zM316.509 434.31c-58.045 0-104.043-47.093-104.043-104.043 0-58.045 47.093-104.043 104.043-104.043 58.045 0 104.043 47.093 104.043 104.043 1.095 56.95-45.998 104.043-104.043 104.043z" />
<glyph unicode="&#xe931;" d="M350.46 330.267c0-18.618-14.237-32.856-32.856-32.856s-32.856 14.237-32.856 32.856c0 18.618 14.237 32.856 32.856 32.856 17.523 0 32.856-14.237 32.856-32.856z" />
<glyph unicode="&#xe932;" d="M514.738 141.895c-2.19 0-4.381 1.095-5.476 2.19s-2.19 3.286-2.19 5.476c1.095 146.755-27.38 220.133-51.474 254.083-25.189 38.332-49.283 41.617-50.379 41.617-4.381 0-7.666 4.381-7.666 8.761s3.286 7.666 7.666 7.666h246.417c0 0 0 0 0 0 37.236-2.19 70.092-20.809 95.281-54.759 19.713-26.284 36.141-62.426 48.188-106.233 20.809-74.473 21.904-146.755 21.904-150.041 0-2.19-1.095-4.381-2.19-6.571-1.095-1.095-3.286-2.19-5.476-2.19h-294.605z" />
<glyph unicode="&#xe933;" d="M651.636 454.024c154.421-9.857 158.802-303.367 158.802-303.367h-295.701c1.095 293.51-109.519 302.272-109.519 302.272h246.417zM651.636 470.451h-245.322c-8.761 0-16.428-7.666-16.428-16.428s6.571-16.428 15.333-17.523c2.19 0 24.094-4.381 45.998-38.332 22.999-33.951 49.283-105.138 48.188-247.512 0-4.381 2.19-8.761 4.381-12.047 3.286-3.286 7.666-5.476 12.047-5.476h294.605c4.381 0 8.761 2.19 12.047 5.476s4.381 7.666 4.381 12.047c0 3.286-1.095 76.663-21.904 152.231-12.047 44.903-29.57 82.139-50.379 109.519-27.38 36.141-61.33 55.855-102.948 58.045 1.095 0 1.095 0 0 0v0z" />
<glyph unicode="&#xe934;" d="M707.491 486.879h-378.935c1.095 0 1.095 0 2.19 0 13.142-1.095 24.094-13.142 22.999-26.284 0-1.095 0-2.19 0-4.381 54.759-15.333 94.186-65.711 94.186-125.947 0-58.045-37.236-107.328-89.805-123.756 0-1.095 1.095-3.286 1.095-4.381 1.095-13.142-8.761-25.189-21.904-27.38-1.095 0-1.095 0-2.19 0h372.364c86.52 0 156.612 70.092 156.612 156.612 0 85.425-70.092 155.517-156.612 155.517zM707.491 225.129h-272.702c2.19 3.286 5.476 7.666 7.666 12.047 56.95 97.472 14.237 169.754-10.952 198.229h275.987c58.045 0 105.138-47.093 105.138-105.138s-47.093-105.138-105.138-105.138z" />
<glyph unicode="&#xe935;" d="M658.735 937.717c270.491-81.379 423.796-366.626 342.417-637.116s-366.626-423.796-637.116-342.417c-270.491 81.379-423.796 366.626-342.417 637.116s366.626 423.796 637.116 342.417z" />
<glyph unicode="&#xe936;" d="M643.97 340.124c8.761 0 15.333-5.476 20.809-16.428 12.047-22.999 22.999-47.093 35.046-70.092 5.476-10.952 13.142-16.428 21.904-16.428 4.381 0 9.857 1.095 14.237 4.381 15.333 7.666 31.76 15.333 47.093 24.094 3.286 3.286 5.476 7.666 6.571 12.047 3.286 9.857 1.095 20.809-5.476 32.856-61.33 108.424-117.185 220.133-167.564 328.556-21.904 48.188-49.283 109.519-99.662 143.47-21.904 15.333-48.188 22.999-75.568 22.999-25.189 0-52.569-5.476-84.329-18.618-53.664-30.665-101.852-74.473-110.614-140.184-7.666-56.95 15.333-113.899 38.332-164.278 54.759-120.471 107.328-242.036 162.088-361.412 5.476-13.142 14.237-19.713 24.094-19.713 2.19 0 4.381 0 6.571 1.095 1.095 1.095 2.19 1.095 3.286 2.19 14.237 7.666 28.475 15.333 41.617 22.999 20.809 10.952 26.284 30.665 16.428 52.569-10.952 22.999-21.904 47.093-32.856 70.092-4.381 9.857-3.286 15.333 6.571 20.809 13.142 6.571 25.189 13.142 37.236 19.713 2.19 4.381 6.571 8.761 13.142 12.047 21.904 12.047 43.807 22.999 65.711 35.046 6.571 1.095 10.952 2.19 15.333 2.19zM565.117 477.022c-21.904-10.952-43.807-21.904-65.711-32.856-4.381-2.19-8.761-3.286-13.142-3.286s-8.761 2.19-13.142 5.476c-9.857-5.476-20.809-10.952-32.856-17.523-2.19-1.095-5.476-2.19-6.571-2.19v0c-3.286 0-6.571 3.286-9.857 8.761-12.047 28.475-25.189 58.045-38.332 89.805v0c-15.333 35.046-8.761 54.759 24.094 71.187 3.286 1.095 6.571 3.286 9.857 4.381 4.381 15.333 16.428 28.475 37.236 38.332 12.047 6.571 22.999 8.761 32.856 8.761 21.904 0 37.236-15.333 48.188-43.807 13.142-30.665 26.284-60.235 39.427-90.901 6.571-15.333 2.19-27.38-12.047-36.141z" />
<glyph unicode="&#xe937;" d="M461.074 588.732c-1.095-2.19 0-8.761 5.476-20.809 0 0 0 0 0-1.095 10.952-26.284 21.904-50.379 31.76-74.473 12.047 6.571 22.999 12.047 32.856 16.428-10.952 25.189-22.999 52.569-33.951 78.853 0 0 0 1.095 0 1.095-1.095 1.095-1.095 3.286-2.19 4.381-3.286 6.571-6.571 9.857-8.761 10.952-2.19-1.095-5.476-2.19-9.857-3.286-10.952-6.571-14.237-10.952-15.333-12.047z" />
<glyph unicode="&#xe938;" d="M664.779 227.32c-6.571 12.047-12.047 25.189-18.618 37.236-4.381 7.666-7.666 16.428-12.047 24.094-12.047-6.571-24.094-12.047-36.141-18.618 8.761-19.713 18.618-39.427 27.38-59.14 1.095-2.19 2.19-5.476 3.286-7.666 8.761-8.761 17.523-9.857 22.999-9.857 6.571 0 13.142 2.19 19.713 5.476 4.381 2.19 8.761 4.381 12.047 6.571-7.666 4.381-14.237 12.047-18.618 21.904z" />
<glyph unicode="&#xe939;" d="M408.505 102.468c-32.856 71.187-64.616 143.47-95.281 212.466-21.904 49.283-44.903 99.662-66.806 148.945-25.189 55.855-51.474 120.471-42.712 188.372 1.095 8.761 3.286 17.523 5.476 26.284-16.428-21.904-25.189-47.093-28.475-72.282-7.666-58.045 16.428-116.090 38.332-165.373 21.904-48.188 43.807-97.472 64.616-144.565 29.57-67.902 61.33-136.898 91.996-205.895 9.857-21.904 25.189-25.189 33.951-25.189 6.571 0 12.047 2.19 18.618 5.476 1.095 1.095 2.19 1.095 3.286 2.19-7.666 5.476-16.428 15.333-22.999 29.57z" />
<glyph unicode="&#xe93a;" d="M838.913 325.887c-62.426 111.709-120.471 225.609-174.135 341.698-22.999 51.474-50.379 110.614-98.567 143.47-22.999 15.333-47.093 21.904-71.187 21.904-36.141 0-72.282-13.142-105.138-28.475-64.616-30.665-132.518-78.853-142.374-156.612-7.666-56.95 15.333-113.899 38.332-164.278 54.759-120.471 107.328-242.036 162.088-361.412 5.476-13.142 14.237-19.713 24.094-19.713 4.381 0 8.761 1.095 13.142 4.381 29.57 16.428 59.14 32.856 88.71 49.283 15.333 8.761 19.713 21.904 12.047 38.332-10.952 24.094-22.999 48.188-33.951 72.282-7.666 16.428-3.286 29.57 12.047 37.236 21.904 12.047 43.807 22.999 65.711 35.046 5.476 2.19 9.857 4.381 14.237 4.381 8.761 0 15.333-5.476 20.809-16.428 12.047-22.999 22.999-47.093 35.046-70.092 5.476-10.952 13.142-16.428 21.904-16.428 4.381 0 9.857 1.095 14.237 4.381 30.665 15.333 61.33 30.665 91.996 44.903 17.523 5.476 20.809 18.618 10.952 36.141zM565.117 477.022c-21.904-10.952-43.807-21.904-65.711-32.856-4.381-2.19-8.761-3.286-13.142-3.286-8.761 0-16.428 5.476-20.809 16.428-13.142 30.665-26.284 61.33-39.427 91.996-17.523 40.522-9.857 68.997 30.665 89.805 12.047 6.571 22.999 8.761 32.856 8.761 21.904 0 37.236-15.333 48.188-43.807 13.142-30.665 26.284-60.235 39.427-90.901 6.571-15.333 2.19-27.38-12.047-36.141z" />
<glyph unicode="&#xe93b;" d="M1022.905 448.548c0-282.467-228.985-511.452-511.452-511.452s-511.452 228.985-511.452 511.452c0 282.467 228.985 511.452 511.452 511.452s511.452-228.985 511.452-511.452z" />
<glyph unicode="&#xe93c;" d="M756.774 421.168h-21.904v8.761c0 26.284-20.809 47.093-47.093 47.093h-229.989c-26.284 0-47.093-20.809-47.093-47.093v-309.938c0-26.284 20.809-47.093 47.093-47.093h229.989c26.284 0 47.093 20.809 47.093 47.093v10.952h21.904c47.093 0 85.425 38.332 85.425 85.425v118.28c0 48.188-38.332 86.52-85.425 86.52zM797.296 216.368c0-21.904-17.523-40.522-40.522-40.522h-21.904v199.324h21.904c21.904 0 40.522-17.523 40.522-40.522v-118.28z" />
<glyph unicode="&#xe93d;" d="M504.881 132.039c5.476 41.617 10.952 84.329 16.428 125.947 9.857 72.282 18.618 144.565 28.475 217.942h-91.996c-26.284 0-47.093-20.809-47.093-47.093v-309.938c0-21.904 15.333-40.522 36.141-45.998 30.665 5.476 53.664 29.57 58.045 59.14z" />
<glyph unicode="&#xe93e;" d="M362.507 119.991v308.843c0 52.569 42.712 96.376 96.376 96.376h99.662c0 1.095 0 3.286 1.095 4.381 4.381 32.856 5.476 63.521-10.952 94.186-6.571 12.047-10.952 26.284-16.428 39.427-9.857 27.38-22.999 50.379-55.855 53.664 0 16.428-1.095 31.76 0 45.998 2.19 25.189-6.571 43.807-29.57 54.759-45.998 0-93.091 0-139.089 0-25.189-8.761-35.046-26.284-32.856-52.569 1.095-16.428 0-32.856 0-49.283-26.284-4.381-41.617-17.523-50.379-40.522-10.952-28.475-22.999-55.855-32.856-84.329-2.19-6.571-4.381-15.333-3.286-21.904 7.666-63.521 16.428-128.137 24.094-191.658 10.952-79.949 21.904-159.897 31.76-240.941 4.381-38.332 30.665-63.521 68.997-64.616 20.809 0 41.617-1.095 62.426-1.095-8.761 16.428-13.142 31.76-13.142 49.283zM214.657 587.636c13.142 30.665 24.094 61.33 38.332 89.805 3.286 7.666 16.428 13.142 26.284 13.142 63.521 1.095 128.137 1.095 191.658 0 8.761 0 22.999-7.666 26.284-15.333 14.237-28.475 25.189-58.045 37.236-88.71-107.328-22.999-212.466-22.999-319.795 1.095z" />
<glyph unicode="&#xe93f;" d="M982.716 646.926c109.654-260.322-12.487-560.247-272.809-669.9s-560.247 12.487-669.9 272.809c-109.654 260.322 12.487 560.247 272.809 669.9s560.247-12.487 669.9-272.809z" />
<glyph unicode="&#xe940;" d="M455.598 272.222v0c-27.38 0-41.617-10.952-47.093-36.141l-1.095-6.571h507.072l-9.857 8.761c-20.809 19.713-39.427 36.141-70.092 36.141-1.095 0-1.095 0-2.19 0-76.663-2.19-157.707-2.19-255.179-2.19-37.236 0-76.663 0-121.566 0z" />
<glyph unicode="&#xe941;" d="M894.768 217.463c-2.19 0-4.381 0-5.476 0s-3.286 0-4.381 0c-75.568 0-153.326 0-228.894 0s-153.326 0-228.894 0c-1.095 0-2.19 0-4.381 0s-4.381 0-6.571 0c-12.047 0-13.142-8.761-13.142-12.047 0-2.19 0-4.381 1.095-6.571-1.095 0-3.286 0-4.381 1.095-13.142 2.19-24.094 3.286-30.665 14.237-16.428 26.284-26.284 56.95-30.665 88.71-3.286 24.094 3.286 44.903 19.713 59.14 32.856 30.665 66.806 61.33 99.662 89.805 12.047 10.952 24.094 20.809 35.046 31.76 4.381-6.571 7.666-12.047 14.237-16.428l-14.237-14.237c-42.712-36.141-85.425-70.092-128.137-105.138-26.284-21.904-26.284-25.189-6.571-50.379 1.095-2.19 3.286-3.286 4.381-4.381 1.095 0 1.095-1.095 2.19-1.095l3.286-3.286 31.76 26.284c41.617 33.951 84.329 68.997 125.947 102.948l51.474 42.712c61.33 50.379 124.851 101.852 187.277 153.326 1.095 1.095 2.19 1.095 3.286 2.19 4.381 3.286 13.142 7.666 8.761 19.713-6.571 19.713-19.713 22.999-26.284 22.999-7.666 0-14.237-3.286-21.904-8.761-3.286-2.19-5.476-4.381-8.761-7.666-2.19-2.19-4.381-3.286-6.571-5.476l-22.999-21.904c-38.332-30.665-76.663-63.521-116.090-95.281-1.095-1.095-1.095-1.095-2.19-2.19 0 0 0 0 0 0-2.19 6.571-5.476 9.857-8.761 14.237-2.19 2.19-3.286 4.381-5.476 6.571 2.19 2.19 4.381 4.381 6.571 6.571 6.571 6.571 14.237 13.142 21.904 18.618s10.952 10.952 10.952 16.428c0 7.666-4.381 12.047-9.857 16.428-2.19 2.19-4.381 4.381-5.476 6.571s-5.476 9.857-13.142 9.857c-5.476 0-9.857-4.381-14.237-8.761l-1.095-1.095c-5.476-5.476-12.047-10.952-18.618-16.428-12.047-10.952-24.094-21.904-33.951-32.856-5.476-5.476-8.761-8.761-12.047-8.761s-6.571 3.286-12.047 10.952c-12.047 16.428-24.094 30.665-37.236 44.903-8.761 8.761-12.047 18.618-10.952 32.856 5.476 54.759 10.952 76.663 16.428 98.567s10.952 45.998 16.428 100.757c1.095 8.761 1.095 18.618-4.381 25.189-3.286 4.381-8.761 6.571-15.333 6.571-1.095 0-2.19 0-2.19 0-18.618 0-19.713-16.428-20.809-26.284v-1.095c0-4.381-1.095-7.666-1.095-9.857-1.095 1.095-2.19 1.095-4.381 1.095-6.571 0-7.666-8.761-8.761-26.284-4.381-79.949-15.333-146.755-51.474-206.99-5.476-8.761-8.761-17.523-13.142-26.284-2.19-5.476-4.381-12.047-7.666-17.523-10.952-21.904-16.428-44.903-16.428-70.092 0-2.19 0-3.286 0-5.476 1.095-5.476 1.095-5.476-2.19-6.571-1.095 0-1.095 0-2.19 0-3.286 0-5.476 1.095-8.761 9.857-10.952 28.475-22.999 55.855-31.76 78.853-9.857 24.094-25.189 37.236-45.998 40.522-4.381 1.095-8.761 1.095-13.142 1.095-32.856 0-52.569-22.999-52.569-60.235 0-114.995 0-237.656 1.095-374.554 0-39.427 16.428-55.855 55.855-55.855 136.898 0 274.892 0 411.79-1.095h71.187c16.428 0 26.284 0 31.76 6.571s5.476 15.333 4.381 35.046c-1.095 17.523-16.428 36.141-30.665 42.712h42.712c40.522 0 88.71 0 136.898 0 1.095 0 2.19 0 4.381 0s4.381-1.095 6.571-1.095c7.666 0 12.047 4.381 12.047 12.047 0 4.381-1.095 7.666-3.286 9.857-1.095 3.286-4.381 4.381-8.761 4.381zM233.275 486.879c-7.666 0-13.142-2.19-17.523-5.476-4.381-5.476-4.381-12.047-3.286-16.428 0-2.19 0-4.381 0-6.571s0-4.381 0-6.571c-1.095-6.571-1.095-13.142 3.286-17.523 3.286-3.286 8.761-5.476 15.333-5.476h1.095c6.571 0 12.047 2.19 15.333 5.476 4.381 4.381 4.381 10.952 4.381 16.428 0 1.095 0 2.19 0 3.286s0 2.19 0 3.286 0 4.381 0 7.666c0 1.095 0 2.19 0 3.286 0 2.19 0 4.381 0 6.571 5.476-14.237 12.047-28.475 16.428-42.712 3.286-8.761 3.286-17.523 0-22.999-16.428-22.999-17.523-48.188-16.428-74.473 0-5.476-1.095-9.857-2.19-12.047-2.19-2.19-5.476-2.19-12.047-2.19-1.095 0-3.286 0-5.476 0s-3.286 0-5.476 0c-1.095 0-3.286 0-4.381 0-5.476 0-7.666 1.095-9.857 2.19-2.19 2.19-3.286 5.476-3.286 12.047 0 19.713 0 38.332 0 58.045 0 8.761 0 17.523 0 25.189s0 16.428 0 24.094c0 17.523 0 37.236 0 54.759 0 14.237 6.571 17.523 12.047 19.713 1.095 0 2.19 0 3.286 0 6.571 0 12.047-6.571 14.237-13.142 3.286-7.666 6.571-15.333 9.857-22.999-3.286 4.381-7.666 6.571-15.333 6.571zM213.561 248.128v3.286c0 12.047 4.381 12.047 8.761 12.047 2.19 0 4.381 0 7.666-1.095 2.19 0 5.476-1.095 7.666-1.095h1.095c16.428 0 26.284-3.286 32.856-9.857s9.857-18.618 8.761-36.141c0-2.19 0-4.381 0-6.571 0-4.381 0-8.761-1.095-9.857 0 0-1.095 0-5.476 0-2.19 0-5.476 0-8.761 0-4.381 0-9.857 0-15.333 0-18.618 1.095-28.475 1.095-31.76 5.476-5.476 7.666-5.476 19.713-4.381 43.807zM317.604 399.264c4.381 7.666 9.857 14.237 16.428 18.618 16.428 12.047 22.999 27.38 30.665 43.807l1.095 2.19c12.047 26.284 22.999 51.474 36.141 78.853 4.381 8.761 7.666 16.428 12.047 25.189 3.286-3.286 5.476-6.571 8.761-9.857 10.952-13.142 21.904-25.189 32.856-37.236 2.19-3.286 3.286-4.381 3.286-4.381s0-1.095-2.19-2.19c-12.047-10.952-25.189-20.809-37.236-31.76-33.951-28.475-66.806-56.95-101.852-83.234zM570.593 191.179c-2.19-3.286-4.381-6.571-3.286-12.047 0-2.19 0-4.381-1.095-5.476s-5.476-1.095-7.666-1.095c0 0-1.095 0-1.095 0-10.952 0-21.904 0-32.856 0-7.666 0-16.428 0-24.094 0v0c-1.095 0-1.095 0-2.19 0s-1.095 0-2.19 0-2.19 0-2.19 0c0 7.666-1.095 13.142-5.476 16.428-1.095 1.095-2.19 2.19-3.286 2.19 28.475 0 56.95 0 82.139 0h6.571c-3.286 1.095-3.286 1.095-3.286 0z" />
<glyph unicode="&#xe942;" d="M1022.905 448.548c0-282.467-228.985-511.452-511.452-511.452s-511.452 228.985-511.452 511.452c0 282.467 228.985 511.452 511.452 511.452s511.452-228.985 511.452-511.452z" />
<glyph unicode="&#xe943;" d="M830.152 622.682c10.952 18.618 13.142 36.141 9.857 48.188 0 4.381-1.095 8.761-3.286 13.142 0 0 0 0-1.095 0-4.381 8.761-9.857 15.333-12.047 17.523-1.095 1.095-2.19 2.19-2.19 3.286-13.142 15.333-28.475 26.284-48.188 28.475-26.284 3.286-48.188-5.476-67.902-20.809-14.237-10.952-26.284-22.999-38.332-36.141-37.236-38.332-74.473-76.663-111.709-116.090-39.427-40.522-79.949-82.139-119.375-122.661-2.19-2.19-5.476-5.476-7.666-7.666l-39.427-40.522c-32.856-33.951-65.711-67.902-99.662-101.852-30.665-31.76-62.426-63.521-93.091-96.376-5.476-6.571-10.952-14.237-14.237-21.904-4.381-10.952 1.095-16.428 13.142-13.142 8.761 3.286 18.618 7.666 26.284 13.142 37.236 26.284 74.473 53.664 112.804 79.949 51.474 36.141 101.852 73.378 153.326 110.614l48.188 36.141c0 0 0 0 0 0 2.19 0 3.286 1.095 5.476 2.19 19.713 14.237 40.522 28.475 60.235 42.712 61.33 43.807 122.661 88.71 183.991 132.518 18.618 13.142 35.046 28.475 44.903 49.283zM774.297 620.492c-42.712-30.665-85.425-61.33-128.137-91.996-9.857-7.666-21.904-5.476-29.57 3.286s-6.571 20.809 2.19 29.57c10.952 10.952 21.904 21.904 31.76 32.856 25.189 26.284 49.283 51.474 74.473 76.663 5.476 5.476 13.142 9.857 19.713 12.047 15.333 3.286 26.284 0 32.856-5.476 0 0 0 0-1.095 0 7.666-6.571 10.952-14.237 12.047-19.713 1.095-2.19 1.095-4.381 1.095-4.381 2.19-14.237-4.381-25.189-15.333-32.856z" />
<glyph unicode="&#xe944;" d="M696.539 90.421c-15.333 0-31.76 2.19-49.283 7.666-41.617 12.047-60.235 38.332-67.902 56.95-27.38 66.806 20.809 156.612 26.284 166.468 0 1.095 1.095 1.095 1.095 2.19 50.379 72.282 75.568 140.184 75.568 202.61 0 51.474-18.618 98.567-52.569 136.898-72.282 81.044-206.99 109.519-293.51 62.426-43.807-24.094-71.187-54.759-79.949-93.091-16.428-72.282 36.141-147.85 36.141-147.85 8.761-13.142 6.571-30.665-6.571-39.427s-30.665-6.571-39.427 6.571c-3.286 4.381-67.902 96.376-45.998 193.848 12.047 53.664 48.188 97.472 108.424 130.327 109.519 60.235 272.702 26.284 363.602-74.473 43.807-49.283 66.806-109.519 66.806-175.23 0-73.378-28.475-152.231-84.329-233.275-10.952-20.809-37.236-82.139-22.999-116.090 3.286-7.666 9.857-18.618 31.76-24.094 30.665-8.761 53.664-6.571 70.092 5.476 35.046 25.189 38.332 86.52 38.332 87.615 1.095 15.333 14.237 27.38 29.57 27.38 15.333-1.095 27.38-14.237 27.38-29.57 0-2.19-1.095-22.999-8.761-48.188-10.952-36.141-28.475-64.616-53.664-82.139-19.713-15.333-42.712-22.999-70.092-22.999z" />
<glyph unicode="&#xe945;" d="M707.099 920.557c260.972-108.1 384.898-407.292 276.798-668.264s-407.292-384.898-668.264-276.798c-260.972 108.1-384.898 407.292-276.798 668.264s407.292 384.898 668.264 276.798z" />
<glyph unicode="&#xe946;" d="M877.245 585.446c-3.286 2.19-5.476 4.381-8.761 6.571-5.476 4.381-12.047 9.857-17.523 15.333-14.237 13.142-28.475 27.38-42.712 41.617-22.999 22.999-47.093 45.998-70.092 67.902l-4.381 4.381c-15.333 15.333-31.76 30.665-55.855 33.951-4.381 1.095-7.666 1.095-12.047 2.19-2.19 0-4.381 1.095-5.476 1.095 0 0-1.095 0-1.095 0h-56.95c-1.095 0-3.286-1.095-4.381-2.19s-1.095-2.19-1.095-4.381c2.19-16.428-5.476-28.475-24.094-40.522-17.523-10.952-40.522-17.523-62.426-17.523-26.284 0-51.474 8.761-70.092 22.999-8.761 6.571-17.523 17.523-15.333 33.951 0 1.095 0 3.286-1.095 4.381s-2.19 2.19-4.381 2.19h-59.14c0 0-1.095 0-1.095 0l-4.381-1.095c-3.286-1.095-6.571-1.095-9.857-2.19-19.713-3.286-37.236-14.237-53.664-30.665l-15.333-15.333c-31.76-31.76-64.616-64.616-96.376-96.376-6.571-6.571-14.237-13.142-21.904-18.618-3.286-3.286-6.571-5.476-9.857-8.761-1.095-1.095-2.19-2.19-2.19-4.381v-5.476c0-2.19 1.095-3.286 2.19-4.381l135.803-107.328c2.19-1.095 5.476-1.095 6.571 0l30.665 26.284v-349.365c0-3.286 2.19-5.476 5.476-5.476h374.554c3.286 0 5.476 2.19 5.476 5.476v351.555l30.665-26.284c2.19-2.19 5.476-2.19 6.571 0l135.803 107.328c1.095 1.095 2.19 2.19 2.19 4.381v5.476c-2.19 1.095-3.286 2.19-4.381 3.286z" />
<glyph unicode="&#xe947;" glyph-name="hands" horiz-adv-x="1589" d="M1561.395 960h-168.209c-25.122 0-47.514-16.384-55.706-40.414l-1.092-2.731h-442.914l-1.092 0.546c-84.105 38.229-176.401 49.152-267.059 31.676l-252.86-49.152h-118.511v3.823c-1.092 31.676-26.761 56.252-58.436 56.252h-168.209c-15.292 0-27.307-12.015-27.307-27.307v-653.175c0-14.746 12.015-27.307 27.307-27.307h168.209c32.222 0 58.436 26.214 58.436 58.436v5.461l5.461-1.092c15.292-4.369 28.945-10.923 40.96-20.753l15.838-12.561v-1.638c2.731-24.576 14.746-46.967 33.86-62.805 18.569-15.292 42.598-22.938 66.628-21.299h3.823l0.546-3.823c3.277-24.030 15.292-45.875 33.86-61.713 18.569-15.292 42.598-22.938 66.628-21.299h3.823l0.546-3.823c3.277-24.030 15.292-45.875 33.86-61.713 19.115-15.838 42.052-22.938 66.628-21.299h3.823l0.546-3.823c3.277-24.030 15.292-45.875 33.86-61.713 17.476-14.199 38.229-21.845 60.075-21.845 3.277 0 6.007 0 9.284 0.546 25.122 2.185 48.060 14.746 64.444 34.406l25.122 30.583c7.1 8.738 12.561 18.022 15.838 28.399l1.638 4.369 4.369-2.185c14.199-7.646 30.037-11.469 46.421-11.469h1.638c26.214 0.546 51.337 10.923 69.905 30.037 9.284 9.83 16.93 21.299 21.845 33.86l2.185 6.007 15.292-14.746c18.569-18.022 43.145-27.853 69.359-27.853 27.307 0 52.429 10.923 70.997 30.037 10.923 10.923 18.569 24.030 23.484 38.775l1.638 4.369 4.369-2.185c13.653-6.554 28.945-10.377 44.237-10.377 27.307 0 52.429 10.923 70.997 30.037s28.399 44.237 27.853 70.451c-0.546 26.761-10.923 51.337-30.037 69.905l-25.668 25.122 74.82 40.414v-33.86c0-32.222 26.214-58.436 58.436-58.436h168.209c14.746 0 27.307 12.015 27.307 27.307v654.268c0 15.292-12.015 27.307-27.307 27.307zM199.339 306.278h-145.271v599.654h145.271v-599.654zM442.368 264.772c-7.1-8.192-16.93-13.653-27.853-14.746-1.092 0-2.731 0-3.823 0-9.284 0-18.569 3.277-25.668 9.284-8.192 7.1-13.653 16.93-14.746 27.853s2.185 21.299 9.284 30.037l25.122 30.583c7.1 8.192 16.93 13.653 27.853 14.746s21.845-2.185 30.037-9.284c17.476-14.199 19.661-40.414 5.461-57.344l-25.668-31.13zM547.226 177.937c-7.1-8.192-16.93-13.653-27.853-14.746-1.092 0-2.731 0-3.823 0-9.284 0-18.569 3.277-25.668 9.284-8.192 7.1-13.653 16.93-14.746 27.853s2.185 21.299 9.284 30.037l25.122 30.583c7.1 8.192 16.93 13.653 27.853 14.746s21.845-2.185 30.037-9.284c8.192-7.1 13.653-16.93 14.746-27.853s-2.185-21.299-9.284-30.037l-25.668-30.583zM652.083 91.648c-7.1-8.192-16.93-13.653-27.853-14.746-1.092 0-2.731 0-3.823 0-9.284 0-18.569 3.277-25.668 9.284-8.192 7.1-13.653 16.93-14.746 27.853s2.185 21.299 9.284 30.037l25.122 30.583c7.646 9.284 19.115 14.746 31.676 14.746 9.284 0 18.569-3.277 26.214-9.284 8.192-7.1 13.653-16.93 14.746-27.853s-2.185-21.299-9.284-30.037l-25.668-30.583zM782.609 35.942l-25.122-30.583c-7.1-8.192-16.93-13.653-27.853-14.746-1.092 0-2.731 0-3.823 0-9.284 0-18.569 3.277-25.668 9.284-8.192 7.1-13.653 16.93-14.746 27.853s2.185 21.299 9.284 30.037l25.122 30.583c7.1 8.192 16.93 13.653 27.853 14.746s21.299-2.185 30.037-9.284c8.192-7.1 13.653-16.93 14.746-27.853s-2.731-21.845-9.83-30.037zM1261.568 207.974c0-12.015-4.369-23.484-12.561-32.222-17.476-18.022-45.875-18.022-63.898-1.092l-205.892 199.885c-5.461 4.915-12.015 7.646-19.115 7.646s-14.199-3.277-19.115-8.192c-4.915-5.461-7.646-12.015-7.646-19.115s3.277-14.199 8.192-19.115l161.655-157.286c18.022-17.476 18.022-45.875 1.092-63.898s-45.875-18.022-63.898-1.092l-240.845 233.745c-4.915 4.915-12.015 7.646-19.115 7.646 0 0 0 0-0.546 0-7.1 0-14.199-3.277-19.115-8.192-10.377-10.923-10.377-27.853 0.546-38.229l161.655-157.286c18.022-17.476 18.022-45.875 1.092-63.898-8.192-8.738-19.661-13.653-31.676-13.653 0 0-0.546 0-0.546 0-11.469 0-22.938 4.369-31.13 12.561l-45.329 44.237c-1.092 1.092-1.638 1.638-2.731 2.185l-1.638 1.638c-18.569 15.292-42.598 22.938-66.628 21.299h-3.823l-0.546 3.823c-3.277 24.030-15.292 45.875-33.86 61.713-18.569 15.292-42.598 22.938-66.628 21.299h-3.823l-0.546 3.823c-3.277 24.030-15.292 45.875-33.86 61.713-18.569 15.292-42.598 22.938-66.628 21.299h-3.823l-0.546 3.823c-3.277 24.030-15.292 45.875-33.86 61.713-19.661 16.384-44.237 23.484-69.359 21.299s-48.060-14.746-64.444-34.406l-25.122-30.583c-2.185-2.185-3.823-4.915-5.461-7.646l-2.185-3.277-3.277 2.185c-20.207 14.199-44.237 24.030-68.813 28.399l-3.277 0.546v474.044h122.334c1.638 0 3.277 0 4.915 0.546l255.044 49.698c43.691 8.738 87.381 9.284 131.072 2.731l13.653-2.185-12.561-5.461c-32.222-14.746-61.167-34.406-86.835-59.529l-236.476-233.745c-41.506-40.96-42.052-108.134-1.638-149.641 20.207-20.753 48.060-32.222 76.459-32.222 18.022 0 36.591 4.915 52.429 13.653l248.491 140.356h87.927l338.603-329.865c8.738-8.192 13.107-19.661 13.653-31.676zM1334.75 405.675l-115.78-62.259-232.653 226.645h32.222c14.746 0 27.307 12.015 27.307 27.307s-12.015 27.307-27.307 27.307h-204.8c-4.915 0-9.284-1.092-13.107-3.277l-254.498-144.725c-20.753-11.469-46.967-8.192-63.351 9.284-19.661 20.207-19.661 53.521 0.546 73.182l235.93 233.745c45.329 44.783 105.95 69.905 169.847 69.905h445.645v-457.114zM1534.635 306.278h-145.271v599.654h145.271v-178.039c0 0 0 0 0 0v-241.391c0 0 0 0 0 0v-180.224z" />
<glyph unicode="&#xe948;" glyph-name="star" horiz-adv-x="848" d="M843.736 70.483l-107.3 138.059c34.694 10.372 64.738 32.548 85.125 62.949 25.394 43.635 13.949 97.285 2.861 148.789-6.796 26.467-10.73 53.65-11.803 80.833 1.073 27.183 5.365 54.365 11.803 80.833 11.088 51.504 22.533 104.796-2.861 148.432-26.11 45.424-79.044 61.876-129.833 78.329-25.394 7.153-50.073 16.81-73.322 28.613-21.102 13.949-40.774 29.686-58.657 47.57-38.27 35.409-81.19 75.11-135.913 75.11s-97.643-39.701-135.556-74.752c-17.883-17.883-37.555-33.978-58.657-47.57-23.248-12.161-47.927-21.818-73.322-28.613-51.146-16.095-103.723-32.905-129.833-78.329-25.394-43.635-13.949-97.285-2.861-148.789 6.796-26.467 10.73-53.65 11.803-80.833-1.431-27.54-5.365-54.723-12.161-81.19-11.088-51.504-22.533-104.796 2.861-148.432 20.029-30.402 50.073-52.577 85.125-62.949l-107.658-138.059c-6.080-7.869-4.65-18.956 3.219-24.679 3.577-2.861 8.226-4.292 12.876-3.577l126.256 15.737 31.117-109.088c1.788-6.438 7.153-11.088 13.591-12.518 1.073-0.358 2.146-0.358 3.219-0.358 5.365 0 10.73 2.504 13.949 6.796l112.665 144.855c27.898-27.183 64.022-43.278 103.008-45.781 38.628 2.504 75.11 18.956 103.008 45.781l112.665-144.855c3.219-4.292 8.584-6.796 13.949-6.796 1.073 0 2.146 0 3.219 0.358 6.438 1.431 11.803 6.080 13.591 12.518l31.117 109.088 126.256-15.737c9.657-1.073 18.599 5.723 19.672 15.38 1.073 4.292-0.358 8.942-3.219 12.876zM201.724-8.204l-25.752 90.132c-2.504 8.226-10.372 13.591-19.314 12.518l-98.716-12.518 88.701 114.453 9.657-3.219c25.394-7.153 50.073-16.453 73.322-28.613 21.102-13.949 40.774-29.686 58.657-47.57l6.080-5.723-92.636-119.461zM423.835 77.278c-40.774 0-75.11 31.832-111.592 65.453-19.672 19.672-41.489 37.197-65.095 52.219-25.752 13.234-52.577 23.964-80.475 31.832-46.497 14.664-90.847 28.971-110.161 62.234-18.599 31.832-8.942 76.541 1.073 123.753 7.153 28.971 11.445 58.657 12.876 88.344-1.073 29.686-5.365 59.373-12.876 88.344-10.015 47.212-19.672 91.563-1.073 123.753 19.314 33.263 63.307 47.57 110.161 62.234 27.898 7.869 54.723 18.241 80.475 31.832 23.606 15.022 45.424 32.548 65.095 52.219 36.482 33.621 70.818 65.453 111.592 65.453s75.11-31.832 111.592-65.453c19.672-19.672 41.489-37.197 65.095-52.219 25.752-13.234 52.577-23.964 80.475-31.832 46.497-14.664 90.847-28.971 110.161-62.234 18.599-31.832 8.942-76.541-1.073-123.753-7.153-28.971-11.445-58.657-12.876-88.344 1.073-29.686 5.365-59.373 12.876-88.344 10.015-47.212 19.672-91.563 1.073-123.753-19.314-33.263-63.307-47.57-110.161-62.234-27.898-7.869-54.723-18.241-80.475-31.832-23.606-15.022-45.424-32.548-65.095-52.219-36.482-33.621-70.818-65.453-111.592-65.453zM691.012 94.804c-8.584 1.073-16.81-4.292-19.314-12.518l-25.752-90.132-92.636 119.103 6.080 5.723c17.883 17.883 37.555 33.978 58.657 47.57 23.248 12.161 47.927 21.818 73.322 28.613l9.657 3.219 88.701-114.096-98.716 12.518zM423.835 818.722c-175.614 0-317.966-142.351-317.966-317.966s142.351-317.966 317.966-317.966 317.966 142.351 317.966 317.966c-0.358 175.614-142.709 317.966-317.966 317.966zM423.835 218.557c-155.943 0-282.557 126.614-282.557 282.557s126.614 282.557 282.557 282.557 282.557-126.614 282.557-282.557c-0.358-155.943-126.614-282.557-282.557-282.557zM627.348 574.793c-6.796 9.299-17.168 14.664-28.613 14.664h-108.015l-33.621 103.008c-6.080 18.599-26.11 28.613-44.708 22.533-10.73-3.577-18.956-11.803-22.533-22.533l-33.621-103.008h-107.658c-19.672 0-35.409-15.737-35.409-35.409 0-11.445 5.365-21.818 14.664-28.613l87.628-63.665-33.263-103.008c-6.080-18.599 4.292-38.628 22.533-44.351 10.73-3.577 22.533-1.788 31.832 5.007l87.628 63.665 87.628-63.665c12.161-9.299 29.329-9.299 41.489 0 12.518 8.942 17.883 25.037 12.876 39.343l-33.263 103.008 87.628 63.665c15.022 11.445 18.241 33.621 6.796 49.358zM501.091 482.873c-6.080-4.65-8.942-12.518-6.438-19.672l37.555-115.169-98.001 71.176c-6.080 4.65-14.664 4.65-20.745 0l-98.001-71.176 37.555 115.169c2.504 7.153-0.358 15.38-6.438 19.672l-98.001 71.176h120.891c7.511 0 14.307 5.007 16.81 12.161l37.555 114.811 37.555-115.169c2.504-7.153 9.299-12.161 16.81-12.161h120.891l-98.001-70.818z" />
<glyph unicode="&#xe949;" glyph-name="instagram" horiz-adv-x="878" d="M585.143 438.857c0 80.571-65.714 146.286-146.286 146.286s-146.286-65.714-146.286-146.286 65.714-146.286 146.286-146.286 146.286 65.714 146.286 146.286zM664 438.857c0-124.571-100.571-225.143-225.143-225.143s-225.143 100.571-225.143 225.143 100.571 225.143 225.143 225.143 225.143-100.571 225.143-225.143zM725.714 673.143c0-29.143-23.429-52.571-52.571-52.571s-52.571 23.429-52.571 52.571 23.429 52.571 52.571 52.571 52.571-23.429 52.571-52.571zM438.857 798.857c-64 0-201.143 5.143-258.857-17.714-20-8-34.857-17.714-50.286-33.143s-25.143-30.286-33.143-50.286c-22.857-57.714-17.714-194.857-17.714-258.857s-5.143-201.143 17.714-258.857c8-20 17.714-34.857 33.143-50.286s30.286-25.143 50.286-33.143c57.714-22.857 194.857-17.714 258.857-17.714s201.143-5.143 258.857 17.714c20 8 34.857 17.714 50.286 33.143s25.143 30.286 33.143 50.286c22.857 57.714 17.714 194.857 17.714 258.857s5.143 201.143-17.714 258.857c-8 20-17.714 34.857-33.143 50.286s-30.286 25.143-50.286 33.143c-57.714 22.857-194.857 17.714-258.857 17.714zM877.714 438.857c0-60.571 0.571-120.571-2.857-181.143-3.429-70.286-19.429-132.571-70.857-184s-113.714-67.429-184-70.857c-60.571-3.429-120.571-2.857-181.143-2.857s-120.571-0.571-181.143 2.857c-70.286 3.429-132.571 19.429-184 70.857s-67.429 113.714-70.857 184c-3.429 60.571-2.857 120.571-2.857 181.143s-0.571 120.571 2.857 181.143c3.429 70.286 19.429 132.571 70.857 184s113.714 67.429 184 70.857c60.571 3.429 120.571 2.857 181.143 2.857s120.571 0.571 181.143-2.857c70.286-3.429 132.571-19.429 184-70.857s67.429-113.714 70.857-184c3.429-60.571 2.857-120.571 2.857-181.143z" />
<glyph unicode="&#xe94a;" glyph-name="facebook" horiz-adv-x="878" d="M713.143 877.714c90.857 0 164.571-73.714 164.571-164.571v-548.571c0-90.857-73.714-164.571-164.571-164.571h-107.429v340h113.714l17.143 132.571h-130.857v84.571c0 38.286 10.286 64 65.714 64l69.714 0.571v118.286c-12 1.714-53.714 5.143-101.714 5.143-101.143 0-170.857-61.714-170.857-174.857v-97.714h-114.286v-132.571h114.286v-340h-304c-90.857 0-164.571 73.714-164.571 164.571v548.571c0 90.857 73.714 164.571 164.571 164.571h548.571z" />
<glyph unicode="&#xe94b;" glyph-name="pointer" horiz-adv-x="661" d="M647.429 354.857c10.857-10.286 13.714-26.286 8-39.429-5.714-13.714-18.857-22.857-33.714-22.857h-218.286l114.857-272c8-18.857-1.143-40-19.429-48l-101.143-42.857c-18.857-8-40 1.143-48 19.429l-109.143 258.286-178.286-178.286c-6.857-6.857-16-10.857-25.714-10.857-4.571 0-9.714 1.143-13.714 2.857-13.714 5.714-22.857 18.857-22.857 33.714v859.429c0 14.857 9.143 28 22.857 33.714 4 1.714 9.143 2.857 13.714 2.857 9.714 0 18.857-3.429 25.714-10.857z" />
<glyph unicode="&#xe94c;" glyph-name="mail" d="M1024 545.143v-453.714c0-50.286-41.143-91.429-91.429-91.429h-841.143c-50.286 0-91.429 41.143-91.429 91.429v453.714c17.143-18.857 36.571-35.429 57.714-49.714 94.857-64.571 190.857-129.143 284-197.143 48-35.429 107.429-78.857 169.714-78.857h1.143c62.286 0 121.714 43.429 169.714 78.857 93.143 67.429 189.143 132.571 284.571 197.143 20.571 14.286 40 30.857 57.143 49.714zM1024 713.143c0-64-47.429-121.714-97.714-156.571-89.143-61.714-178.857-123.429-267.429-185.714-37.143-25.714-100-78.286-146.286-78.286h-1.143c-46.286 0-109.143 52.571-146.286 78.286-88.571 62.286-178.286 124-266.857 185.714-40.571 27.429-98.286 92-98.286 144 0 56 30.286 104 91.429 104h841.143c49.714 0 91.429-41.143 91.429-91.429z" />
<glyph unicode="&#xe94d;" glyph-name="phone" horiz-adv-x="805" d="M804.571 242.286c0-20.571-9.143-60.571-17.714-79.429-12-28-44-46.286-69.714-60.571-33.714-18.286-68-29.143-106.286-29.143-53.143 0-101.143 21.714-149.714 39.429-34.857 12.571-68.571 28-100 47.429-97.143 60-214.286 177.143-274.286 274.286-19.429 31.429-34.857 65.143-47.429 100-17.714 48.571-39.429 96.571-39.429 149.714 0 38.286 10.857 72.571 29.143 106.286 14.286 25.714 32.571 57.714 60.571 69.714 18.857 8.571 58.857 17.714 79.429 17.714 4 0 8 0 12-1.714 12-4 24.571-32 30.286-43.429 18.286-32.571 36-65.714 54.857-97.714 9.143-14.857 26.286-33.143 26.286-50.857 0-34.857-103.429-85.714-103.429-116.571 0-15.429 14.286-35.429 22.286-49.143 57.714-104 129.714-176 233.714-233.714 13.714-8 33.714-22.286 49.143-22.286 30.857 0 81.714 103.429 116.571 103.429 17.714 0 36-17.143 50.857-26.286 32-18.857 65.143-36.571 97.714-54.857 11.429-5.714 39.429-18.286 43.429-30.286 1.714-4 1.714-8 1.714-12z" />
<glyph unicode="&#xe94e;" glyph-name="location" d="M512 960c-176.732 0-320-143.268-320-320 0-320 320-704 320-704s320 384 320 704c0 176.732-143.27 320-320 320zM512 448c-106.040 0-192 85.96-192 192s85.96 192 192 192 192-85.96 192-192-85.96-192-192-192z" />
</font>
</defs>
</svg>
